%
M48
M72
T01C0.0236
T02C0.0315
T03C0.0320
T04C0.0354
T05C0.0400
T06C0.0520
T07C0.0906
%
T01
X5930Y6430
X8180Y6180
X13180Y1930
X16430Y3430
X19680Y17180
X15930Y19680
X14930Y19430
X14180Y21180
X16430Y21180
X8180Y20680
X5180Y17680
X4930Y20180
T02
X3680Y21180
X3680Y20180
X3680Y19180
X3680Y18180
X3680Y17180
X3680Y16180
X3680Y15180
X3680Y14180
X3680Y13180
X3680Y12180
X3680Y11180
X3680Y10180
X3680Y9180
X3680Y8180
X3680Y7180
X9680Y7180
X9680Y8180
X9680Y9180
X9680Y10180
X9680Y11180
X9680Y12180
X9680Y13180
X9680Y14180
X9680Y15180
X9680Y16180
X9680Y17180
X9680Y18180
X9680Y19180
X9680Y20180
X9680Y21180
T03
X11680Y21180
X11680Y20180
X11680Y19180
X11680Y18180
X11680Y17180
X11680Y16180
X11680Y15180
X11680Y14180
X11680Y13180
X11680Y12180
X11680Y11180
X11680Y10180
X11680Y9180
X11680Y8180
X11680Y7180
X11680Y6180
X11680Y5180
X11680Y4180
X11680Y3180
X11680Y2180
X17680Y2180
X17680Y3180
X17680Y4180
X17680Y5180
X17680Y6180
X17680Y7180
X17680Y8180
X17680Y9180
X17680Y10180
X17680Y11180
X17680Y12180
X17680Y13180
X17680Y14180
X17680Y15180
X17680Y16180
X17680Y17180
X17680Y18180
X17680Y19180
X17680Y20180
X17680Y21180
T04
X5341Y4891
X5341Y3906
X6168Y3906
X7192Y3906
X8019Y3906
X8019Y4871
T05
X5180Y8680
X5180Y9680
X5180Y10680
X5180Y11680
X5180Y12680
X5180Y13680
X5180Y14680
X5180Y15680
X19180Y15680
X19180Y14680
X19180Y13680
X19180Y12680
X19180Y11680
X19180Y10680
X19180Y9680
X19180Y8680
T06
X19430Y18680
X19430Y19930
X19430Y21180
T07
X4003Y2725
X6680Y2410
X9337Y2725
M30
