G75*
G70*
%OFA0B0*%
%FSLAX24Y24*%
%IPPOS*%
%LPD*%
%AMOC8*
5,1,8,0,0,1.08239X$1,22.5*
%
%ADD10C,0.0000*%
%ADD11R,0.0515X0.0515*%
%ADD12C,0.0515*%
%ADD13C,0.0520*%
%ADD14C,0.1378*%
%ADD15OC8,0.0560*%
%ADD16C,0.0600*%
%ADD17OC8,0.0850*%
%ADD18C,0.0160*%
%ADD19OC8,0.0356*%
%ADD20C,0.0320*%
%ADD21C,0.0240*%
%ADD22C,0.0120*%
D10*
X002930Y001180D02*
X002930Y022800D01*
X020422Y022800D01*
X020422Y001180D01*
X002930Y001180D01*
D11*
X003680Y021180D03*
D12*
X003680Y020180D03*
X003680Y019180D03*
X003680Y018180D03*
X003680Y017180D03*
X003680Y016180D03*
X003680Y015180D03*
X003680Y014180D03*
X003680Y013180D03*
X003680Y012180D03*
X003680Y011180D03*
X003680Y010180D03*
X003680Y009180D03*
X003680Y008180D03*
X003680Y007180D03*
X009680Y007180D03*
X009680Y008180D03*
X009680Y009180D03*
X009680Y010180D03*
X009680Y011180D03*
X009680Y012180D03*
X009680Y013180D03*
X009680Y014180D03*
X009680Y015180D03*
X009680Y016180D03*
X009680Y017180D03*
X009680Y018180D03*
X009680Y019180D03*
X009680Y020180D03*
X009680Y021180D03*
D13*
X011420Y021180D02*
X011940Y021180D01*
X011940Y020180D02*
X011420Y020180D01*
X011420Y019180D02*
X011940Y019180D01*
X011940Y018180D02*
X011420Y018180D01*
X011420Y017180D02*
X011940Y017180D01*
X011940Y016180D02*
X011420Y016180D01*
X011420Y015180D02*
X011940Y015180D01*
X011940Y014180D02*
X011420Y014180D01*
X011420Y013180D02*
X011940Y013180D01*
X011940Y012180D02*
X011420Y012180D01*
X011420Y011180D02*
X011940Y011180D01*
X011940Y010180D02*
X011420Y010180D01*
X011420Y009180D02*
X011940Y009180D01*
X011940Y008180D02*
X011420Y008180D01*
X011420Y007180D02*
X011940Y007180D01*
X011940Y006180D02*
X011420Y006180D01*
X011420Y005180D02*
X011940Y005180D01*
X011940Y004180D02*
X011420Y004180D01*
X011420Y003180D02*
X011940Y003180D01*
X011940Y002180D02*
X011420Y002180D01*
X017420Y002180D02*
X017940Y002180D01*
X017940Y003180D02*
X017420Y003180D01*
X017420Y004180D02*
X017940Y004180D01*
X017940Y005180D02*
X017420Y005180D01*
X017420Y006180D02*
X017940Y006180D01*
X017940Y007180D02*
X017420Y007180D01*
X017420Y008180D02*
X017940Y008180D01*
X017940Y009180D02*
X017420Y009180D01*
X017420Y010180D02*
X017940Y010180D01*
X017940Y011180D02*
X017420Y011180D01*
X017420Y012180D02*
X017940Y012180D01*
X017940Y013180D02*
X017420Y013180D01*
X017420Y014180D02*
X017940Y014180D01*
X017940Y015180D02*
X017420Y015180D01*
X017420Y016180D02*
X017940Y016180D01*
X017940Y017180D02*
X017420Y017180D01*
X017420Y018180D02*
X017940Y018180D01*
X017940Y019180D02*
X017420Y019180D01*
X017420Y020180D02*
X017940Y020180D01*
X017940Y021180D02*
X017420Y021180D01*
D14*
X009337Y002725D03*
X006680Y002410D03*
X004003Y002725D03*
D15*
X005341Y003906D03*
X006168Y003906D03*
X005341Y004891D03*
X007192Y003906D03*
X008019Y003906D03*
X008019Y004871D03*
D16*
X005480Y008680D02*
X004880Y008680D01*
X004880Y009680D02*
X005480Y009680D01*
X005480Y010680D02*
X004880Y010680D01*
X004880Y011680D02*
X005480Y011680D01*
X005480Y012680D02*
X004880Y012680D01*
X004880Y013680D02*
X005480Y013680D01*
X005480Y014680D02*
X004880Y014680D01*
X004880Y015680D02*
X005480Y015680D01*
X018880Y015680D02*
X019480Y015680D01*
X019480Y014680D02*
X018880Y014680D01*
X018880Y013680D02*
X019480Y013680D01*
X019480Y012680D02*
X018880Y012680D01*
X018880Y011680D02*
X019480Y011680D01*
X019480Y010680D02*
X018880Y010680D01*
X018880Y009680D02*
X019480Y009680D01*
X019480Y008680D02*
X018880Y008680D01*
D17*
X019430Y018680D03*
X019430Y019930D03*
X019430Y021180D03*
D18*
X018936Y021627D02*
X018169Y021627D01*
X018223Y021604D02*
X018039Y021680D01*
X017746Y021680D01*
X017157Y022269D01*
X017010Y022330D01*
X006850Y022330D01*
X006703Y022269D01*
X006591Y022157D01*
X006091Y021657D01*
X006030Y021510D01*
X006030Y010540D01*
X006006Y010540D01*
X006020Y010573D01*
X006020Y010787D01*
X005938Y010986D01*
X005786Y011138D01*
X005684Y011180D01*
X005786Y011222D01*
X005938Y011374D01*
X006020Y011573D01*
X006020Y011787D01*
X005938Y011986D01*
X005786Y012138D01*
X005684Y012180D01*
X005786Y012222D01*
X005938Y012374D01*
X006020Y012573D01*
X006020Y012787D01*
X005938Y012986D01*
X005786Y013138D01*
X005684Y013180D01*
X005786Y013222D01*
X005938Y013374D01*
X006020Y013573D01*
X006020Y013787D01*
X005938Y013986D01*
X005786Y014138D01*
X005684Y014180D01*
X005786Y014222D01*
X005938Y014374D01*
X006020Y014573D01*
X006020Y014787D01*
X005938Y014986D01*
X005786Y015138D01*
X005684Y015180D01*
X005786Y015222D01*
X005938Y015374D01*
X006020Y015573D01*
X006020Y015787D01*
X005938Y015986D01*
X005786Y016138D01*
X005587Y016220D01*
X004773Y016220D01*
X004574Y016138D01*
X004422Y015986D01*
X004340Y015787D01*
X004340Y015573D01*
X004422Y015374D01*
X004574Y015222D01*
X004676Y015180D01*
X004574Y015138D01*
X004422Y014986D01*
X004340Y014787D01*
X004340Y014573D01*
X004422Y014374D01*
X004574Y014222D01*
X004676Y014180D01*
X004574Y014138D01*
X004422Y013986D01*
X004340Y013787D01*
X004340Y013573D01*
X004422Y013374D01*
X004574Y013222D01*
X004676Y013180D01*
X004574Y013138D01*
X004422Y012986D01*
X004340Y012787D01*
X004340Y012573D01*
X004422Y012374D01*
X004574Y012222D01*
X004676Y012180D01*
X004574Y012138D01*
X004422Y011986D01*
X004340Y011787D01*
X004340Y011573D01*
X004422Y011374D01*
X004574Y011222D01*
X004676Y011180D01*
X004574Y011138D01*
X004422Y010986D01*
X004340Y010787D01*
X004340Y010573D01*
X004353Y010540D01*
X004024Y010540D01*
X003962Y010602D01*
X003779Y010677D01*
X003581Y010677D01*
X003398Y010602D01*
X003258Y010462D01*
X003183Y010279D01*
X003183Y010081D01*
X003258Y009898D01*
X003398Y009758D01*
X003581Y009683D01*
X003779Y009683D01*
X003962Y009758D01*
X004024Y009820D01*
X004353Y009820D01*
X004340Y009787D01*
X004340Y009573D01*
X004422Y009374D01*
X004574Y009222D01*
X004676Y009180D01*
X004574Y009138D01*
X004422Y008986D01*
X004340Y008787D01*
X004340Y008573D01*
X004422Y008374D01*
X004574Y008222D01*
X004773Y008140D01*
X005587Y008140D01*
X005786Y008222D01*
X005938Y008374D01*
X006020Y008573D01*
X006020Y008787D01*
X005938Y008986D01*
X005786Y009138D01*
X005684Y009180D01*
X005786Y009222D01*
X005938Y009374D01*
X006020Y009573D01*
X006020Y009787D01*
X006006Y009820D01*
X006030Y009820D01*
X006030Y008096D01*
X004203Y006269D01*
X004091Y006157D01*
X004030Y006010D01*
X004030Y004100D01*
X004091Y003953D01*
X004341Y003703D01*
X004453Y003591D01*
X004600Y003530D01*
X004982Y003530D01*
X005126Y003386D01*
X005557Y003386D01*
X005755Y003584D01*
X005953Y003386D01*
X006384Y003386D01*
X006680Y003683D01*
X006976Y003386D01*
X007407Y003386D01*
X007648Y003627D01*
X007828Y003446D01*
X008010Y003446D01*
X008010Y003898D01*
X008027Y003898D01*
X008027Y003915D01*
X008479Y003915D01*
X008479Y004097D01*
X008225Y004351D01*
X008234Y004351D01*
X008493Y004610D01*
X010244Y004610D01*
X010361Y004659D01*
X010451Y004749D01*
X010920Y005217D01*
X010920Y005081D01*
X010996Y004897D01*
X011137Y004756D01*
X011321Y004680D01*
X011137Y004604D01*
X010996Y004463D01*
X010920Y004279D01*
X010920Y004081D01*
X010996Y003897D01*
X011137Y003756D01*
X011321Y003680D01*
X012039Y003680D01*
X012223Y003756D01*
X012327Y003860D01*
X013994Y003860D01*
X014111Y003909D01*
X014361Y004159D01*
X014430Y004227D01*
X014659Y003999D01*
X014749Y003909D01*
X014866Y003860D01*
X017033Y003860D01*
X017137Y003756D01*
X017321Y003680D01*
X017137Y003604D01*
X016996Y003463D01*
X016920Y003279D01*
X016920Y003081D01*
X016996Y002897D01*
X017137Y002756D01*
X017321Y002680D01*
X018039Y002680D01*
X018223Y002756D01*
X018327Y002860D01*
X018494Y002860D01*
X018611Y002909D01*
X018701Y002999D01*
X018951Y003249D01*
X019000Y003366D01*
X019000Y006494D01*
X018951Y006611D01*
X018861Y006701D01*
X018611Y006951D01*
X018494Y007000D01*
X018407Y007000D01*
X018440Y007081D01*
X018440Y007279D01*
X018364Y007463D01*
X018223Y007604D01*
X018039Y007680D01*
X017321Y007680D01*
X017137Y007604D01*
X016996Y007463D01*
X016920Y007279D01*
X016920Y007081D01*
X016953Y007000D01*
X016563Y007000D01*
X016500Y007063D01*
X016500Y009657D01*
X016659Y009499D01*
X016749Y009409D01*
X016866Y009360D01*
X016953Y009360D01*
X016920Y009279D01*
X016920Y009081D01*
X016996Y008897D01*
X017137Y008756D01*
X017321Y008680D01*
X018039Y008680D01*
X018223Y008756D01*
X018364Y008897D01*
X018440Y009081D01*
X018440Y009279D01*
X018407Y009360D01*
X018436Y009360D01*
X018574Y009222D01*
X018676Y009180D01*
X018574Y009138D01*
X018422Y008986D01*
X018340Y008787D01*
X018340Y008573D01*
X018422Y008374D01*
X018574Y008222D01*
X018773Y008140D01*
X019587Y008140D01*
X019786Y008222D01*
X019938Y008374D01*
X020020Y008573D01*
X020020Y008787D01*
X019938Y008986D01*
X019786Y009138D01*
X019684Y009180D01*
X019786Y009222D01*
X019938Y009374D01*
X020020Y009573D01*
X020020Y009787D01*
X019938Y009986D01*
X019786Y010138D01*
X019684Y010180D01*
X019786Y010222D01*
X019938Y010374D01*
X020020Y010573D01*
X020020Y010787D01*
X019938Y010986D01*
X019786Y011138D01*
X019684Y011180D01*
X019786Y011222D01*
X019938Y011374D01*
X020020Y011573D01*
X020020Y011787D01*
X019938Y011986D01*
X019786Y012138D01*
X019684Y012180D01*
X019786Y012222D01*
X019938Y012374D01*
X020020Y012573D01*
X020020Y012787D01*
X019938Y012986D01*
X019786Y013138D01*
X019684Y013180D01*
X019786Y013222D01*
X019938Y013374D01*
X020020Y013573D01*
X020020Y013787D01*
X019938Y013986D01*
X019786Y014138D01*
X019684Y014180D01*
X019786Y014222D01*
X019938Y014374D01*
X020020Y014573D01*
X020020Y014787D01*
X019938Y014986D01*
X019786Y015138D01*
X019684Y015180D01*
X019786Y015222D01*
X019938Y015374D01*
X020020Y015573D01*
X020020Y015787D01*
X019938Y015986D01*
X019786Y016138D01*
X019587Y016220D01*
X018773Y016220D01*
X018574Y016138D01*
X018422Y015986D01*
X018340Y015787D01*
X018340Y015573D01*
X018422Y015374D01*
X018574Y015222D01*
X018676Y015180D01*
X018574Y015138D01*
X018422Y014986D01*
X018340Y014787D01*
X018340Y014573D01*
X018422Y014374D01*
X018574Y014222D01*
X018676Y014180D01*
X018574Y014138D01*
X018422Y013986D01*
X018344Y013796D01*
X018172Y013625D01*
X018039Y013680D01*
X018223Y013756D01*
X018364Y013897D01*
X018440Y014081D01*
X018440Y014279D01*
X018364Y014463D01*
X018223Y014604D01*
X018039Y014680D01*
X018223Y014756D01*
X018364Y014897D01*
X018440Y015081D01*
X018440Y015279D01*
X018364Y015463D01*
X018223Y015604D01*
X018039Y015680D01*
X018223Y015756D01*
X018364Y015897D01*
X018440Y016081D01*
X018440Y016279D01*
X018364Y016463D01*
X018223Y016604D01*
X018039Y016680D01*
X017321Y016680D01*
X017137Y016604D01*
X016996Y016463D01*
X016920Y016279D01*
X016920Y016081D01*
X016996Y015897D01*
X017137Y015756D01*
X017321Y015680D01*
X018039Y015680D01*
X017321Y015680D01*
X017137Y015604D01*
X016996Y015463D01*
X016920Y015279D01*
X016920Y015081D01*
X016996Y014897D01*
X017137Y014756D01*
X017321Y014680D01*
X018039Y014680D01*
X017321Y014680D01*
X017137Y014604D01*
X016996Y014463D01*
X016920Y014279D01*
X016920Y014081D01*
X016996Y013897D01*
X017137Y013756D01*
X017321Y013680D01*
X018039Y013680D01*
X017321Y013680D01*
X017137Y013604D01*
X017033Y013500D01*
X016866Y013500D01*
X016749Y013451D01*
X016500Y013203D01*
X016500Y018494D01*
X016451Y018611D01*
X016361Y018701D01*
X016111Y018951D01*
X015994Y019000D01*
X012407Y019000D01*
X012440Y019081D01*
X012440Y019279D01*
X012364Y019463D01*
X012223Y019604D01*
X012039Y019680D01*
X012223Y019756D01*
X012364Y019897D01*
X012440Y020081D01*
X012440Y020279D01*
X012407Y020360D01*
X014797Y020360D01*
X015512Y019646D01*
X015512Y019507D01*
X015757Y019262D01*
X016103Y019262D01*
X016139Y019297D01*
X016159Y019249D01*
X016409Y018999D01*
X016499Y018909D01*
X016616Y018860D01*
X017033Y018860D01*
X017137Y018756D01*
X017321Y018680D01*
X017137Y018604D01*
X016996Y018463D01*
X016920Y018279D01*
X016920Y018081D01*
X016996Y017897D01*
X017137Y017756D01*
X017321Y017680D01*
X017137Y017604D01*
X016996Y017463D01*
X016920Y017279D01*
X016920Y017081D01*
X016996Y016897D01*
X017137Y016756D01*
X017321Y016680D01*
X018039Y016680D01*
X018223Y016756D01*
X018247Y016780D01*
X018510Y016780D01*
X018657Y016841D01*
X018907Y017091D01*
X019019Y017203D01*
X019080Y017350D01*
X019080Y018174D01*
X019179Y018075D01*
X019380Y018075D01*
X019380Y018630D01*
X019480Y018630D01*
X019480Y018730D01*
X020035Y018730D01*
X020035Y018931D01*
X019701Y019265D01*
X019705Y019265D01*
X020095Y019655D01*
X020095Y020205D01*
X019745Y020555D01*
X020095Y020905D01*
X020095Y021455D01*
X019705Y021845D01*
X019155Y021845D01*
X018890Y021580D01*
X018247Y021580D01*
X018223Y021604D01*
X017641Y021785D02*
X019095Y021785D01*
X019765Y021785D02*
X020182Y021785D01*
X020182Y021627D02*
X019924Y021627D01*
X020082Y021468D02*
X020182Y021468D01*
X020182Y021310D02*
X020095Y021310D01*
X020095Y021151D02*
X020182Y021151D01*
X020182Y020993D02*
X020095Y020993D01*
X020024Y020834D02*
X020182Y020834D01*
X020182Y020676D02*
X019866Y020676D01*
X019783Y020517D02*
X020182Y020517D01*
X020182Y020359D02*
X019942Y020359D01*
X020095Y020200D02*
X020182Y020200D01*
X020182Y020042D02*
X020095Y020042D01*
X020095Y019883D02*
X020182Y019883D01*
X020182Y019725D02*
X020095Y019725D01*
X020182Y019566D02*
X020006Y019566D01*
X019848Y019408D02*
X020182Y019408D01*
X020182Y019249D02*
X019717Y019249D01*
X019875Y019091D02*
X020182Y019091D01*
X020182Y018932D02*
X020034Y018932D01*
X020035Y018774D02*
X020182Y018774D01*
X020182Y018615D02*
X020035Y018615D01*
X020035Y018630D02*
X019480Y018630D01*
X019480Y018075D01*
X019681Y018075D01*
X020035Y018429D01*
X020035Y018630D01*
X020035Y018457D02*
X020182Y018457D01*
X020182Y018298D02*
X019904Y018298D01*
X019745Y018140D02*
X020182Y018140D01*
X020182Y017981D02*
X019080Y017981D01*
X019080Y017823D02*
X020182Y017823D01*
X020182Y017664D02*
X019080Y017664D01*
X019080Y017506D02*
X020182Y017506D01*
X020182Y017347D02*
X019079Y017347D01*
X019004Y017189D02*
X020182Y017189D01*
X020182Y017030D02*
X018846Y017030D01*
X018687Y016872D02*
X020182Y016872D01*
X020182Y016713D02*
X018119Y016713D01*
X018273Y016555D02*
X020182Y016555D01*
X020182Y016396D02*
X018392Y016396D01*
X018440Y016238D02*
X020182Y016238D01*
X020182Y016079D02*
X019845Y016079D01*
X019965Y015921D02*
X020182Y015921D01*
X020182Y015762D02*
X020020Y015762D01*
X020020Y015604D02*
X020182Y015604D01*
X020182Y015445D02*
X019967Y015445D01*
X019850Y015287D02*
X020182Y015287D01*
X020182Y015128D02*
X019796Y015128D01*
X019945Y014970D02*
X020182Y014970D01*
X020182Y014811D02*
X020010Y014811D01*
X020020Y014653D02*
X020182Y014653D01*
X020182Y014494D02*
X019987Y014494D01*
X019899Y014336D02*
X020182Y014336D01*
X020182Y014177D02*
X019691Y014177D01*
X019905Y014019D02*
X020182Y014019D01*
X020182Y013860D02*
X019990Y013860D01*
X020020Y013702D02*
X020182Y013702D01*
X020182Y013543D02*
X020008Y013543D01*
X019942Y013385D02*
X020182Y013385D01*
X020182Y013226D02*
X019790Y013226D01*
X019856Y013068D02*
X020182Y013068D01*
X020182Y012909D02*
X019970Y012909D01*
X020020Y012751D02*
X020182Y012751D01*
X020182Y012592D02*
X020020Y012592D01*
X019962Y012434D02*
X020182Y012434D01*
X020182Y012275D02*
X019839Y012275D01*
X019807Y012117D02*
X020182Y012117D01*
X020182Y011958D02*
X019949Y011958D01*
X020015Y011800D02*
X020182Y011800D01*
X020182Y011641D02*
X020020Y011641D01*
X019983Y011483D02*
X020182Y011483D01*
X020182Y011324D02*
X019888Y011324D01*
X019719Y011166D02*
X020182Y011166D01*
X020182Y011007D02*
X019917Y011007D01*
X019995Y010849D02*
X020182Y010849D01*
X020182Y010690D02*
X020020Y010690D01*
X020003Y010532D02*
X020182Y010532D01*
X020182Y010373D02*
X019937Y010373D01*
X019767Y010215D02*
X020182Y010215D01*
X020182Y010056D02*
X019868Y010056D01*
X019974Y009898D02*
X020182Y009898D01*
X020182Y009739D02*
X020020Y009739D01*
X020020Y009581D02*
X020182Y009581D01*
X020182Y009422D02*
X019958Y009422D01*
X019827Y009264D02*
X020182Y009264D01*
X020182Y009105D02*
X019819Y009105D01*
X019954Y008947D02*
X020182Y008947D01*
X020182Y008788D02*
X020020Y008788D01*
X020020Y008630D02*
X020182Y008630D01*
X020182Y008471D02*
X019978Y008471D01*
X019876Y008313D02*
X020182Y008313D01*
X020182Y008154D02*
X019621Y008154D01*
X020182Y007996D02*
X018405Y007996D01*
X018440Y008081D02*
X018440Y008279D01*
X018364Y008463D01*
X018223Y008604D01*
X018039Y008680D01*
X017321Y008680D01*
X017137Y008604D01*
X016996Y008463D01*
X016920Y008279D01*
X016920Y008081D01*
X016996Y007897D01*
X017137Y007756D01*
X017321Y007680D01*
X018039Y007680D01*
X018223Y007756D01*
X018364Y007897D01*
X018440Y008081D01*
X018440Y008154D02*
X018739Y008154D01*
X018484Y008313D02*
X018426Y008313D01*
X018382Y008471D02*
X018356Y008471D01*
X018340Y008630D02*
X018161Y008630D01*
X018255Y008788D02*
X018340Y008788D01*
X018384Y008947D02*
X018406Y008947D01*
X018440Y009105D02*
X018541Y009105D01*
X018533Y009264D02*
X018440Y009264D01*
X019180Y009680D02*
X016930Y009680D01*
X016680Y009930D01*
X016680Y012930D01*
X016930Y013180D01*
X017680Y013180D01*
X018091Y013702D02*
X018249Y013702D01*
X018327Y013860D02*
X018370Y013860D01*
X018414Y014019D02*
X018455Y014019D01*
X018440Y014177D02*
X018669Y014177D01*
X018461Y014336D02*
X018417Y014336D01*
X018373Y014494D02*
X018333Y014494D01*
X018340Y014653D02*
X018106Y014653D01*
X018278Y014811D02*
X018350Y014811D01*
X018394Y014970D02*
X018415Y014970D01*
X018440Y015128D02*
X018564Y015128D01*
X018510Y015287D02*
X018437Y015287D01*
X018393Y015445D02*
X018371Y015445D01*
X018340Y015604D02*
X018224Y015604D01*
X018229Y015762D02*
X018340Y015762D01*
X018374Y015921D02*
X018395Y015921D01*
X018439Y016079D02*
X018515Y016079D01*
X017241Y016713D02*
X016500Y016713D01*
X016500Y016555D02*
X017087Y016555D01*
X016968Y016396D02*
X016500Y016396D01*
X016500Y016238D02*
X016920Y016238D01*
X016921Y016079D02*
X016500Y016079D01*
X016500Y015921D02*
X016986Y015921D01*
X017131Y015762D02*
X016500Y015762D01*
X016500Y015604D02*
X017136Y015604D01*
X016989Y015445D02*
X016500Y015445D01*
X016500Y015287D02*
X016923Y015287D01*
X016920Y015128D02*
X016500Y015128D01*
X016500Y014970D02*
X016966Y014970D01*
X017082Y014811D02*
X016500Y014811D01*
X016500Y014653D02*
X017254Y014653D01*
X017027Y014494D02*
X016500Y014494D01*
X016500Y014336D02*
X016943Y014336D01*
X016920Y014177D02*
X016500Y014177D01*
X016500Y014019D02*
X016946Y014019D01*
X017033Y013860D02*
X016500Y013860D01*
X016500Y013702D02*
X017269Y013702D01*
X017076Y013543D02*
X016500Y013543D01*
X016500Y013385D02*
X016682Y013385D01*
X016523Y013226D02*
X016500Y013226D01*
X018430Y013430D02*
X018430Y011430D01*
X018180Y011180D01*
X017680Y011180D01*
X016577Y009581D02*
X016500Y009581D01*
X016500Y009422D02*
X016735Y009422D01*
X016920Y009264D02*
X016500Y009264D01*
X016500Y009105D02*
X016920Y009105D01*
X016976Y008947D02*
X016500Y008947D01*
X016500Y008788D02*
X017105Y008788D01*
X017199Y008630D02*
X016500Y008630D01*
X016500Y008471D02*
X017004Y008471D01*
X016934Y008313D02*
X016500Y008313D01*
X016500Y008154D02*
X016920Y008154D01*
X016955Y007996D02*
X016500Y007996D01*
X016500Y007837D02*
X017056Y007837D01*
X017317Y007679D02*
X016500Y007679D01*
X016500Y007520D02*
X017053Y007520D01*
X016954Y007362D02*
X016500Y007362D01*
X016500Y007203D02*
X016920Y007203D01*
X016935Y007045D02*
X016518Y007045D01*
X016180Y006930D02*
X016430Y006680D01*
X018430Y006680D01*
X018680Y006430D01*
X018680Y003430D01*
X018430Y003180D01*
X017680Y003180D01*
X018039Y003680D02*
X017321Y003680D01*
X018039Y003680D01*
X018223Y003604D01*
X018312Y003515D01*
X018360Y003563D01*
X018360Y003893D01*
X018223Y003756D01*
X018039Y003680D01*
X018126Y003716D02*
X018360Y003716D01*
X018360Y003875D02*
X018342Y003875D01*
X018355Y003558D02*
X018270Y003558D01*
X018785Y003082D02*
X020182Y003082D01*
X020182Y002924D02*
X018626Y002924D01*
X018943Y003241D02*
X020182Y003241D01*
X020182Y003399D02*
X019000Y003399D01*
X019000Y003558D02*
X020182Y003558D01*
X020182Y003716D02*
X019000Y003716D01*
X019000Y003875D02*
X020182Y003875D01*
X020182Y004033D02*
X019000Y004033D01*
X019000Y004192D02*
X020182Y004192D01*
X020182Y004350D02*
X019000Y004350D01*
X019000Y004509D02*
X020182Y004509D01*
X020182Y004667D02*
X019000Y004667D01*
X019000Y004826D02*
X020182Y004826D01*
X020182Y004984D02*
X019000Y004984D01*
X019000Y005143D02*
X020182Y005143D01*
X020182Y005301D02*
X019000Y005301D01*
X019000Y005460D02*
X020182Y005460D01*
X020182Y005618D02*
X019000Y005618D01*
X019000Y005777D02*
X020182Y005777D01*
X020182Y005935D02*
X019000Y005935D01*
X019000Y006094D02*
X020182Y006094D01*
X020182Y006252D02*
X019000Y006252D01*
X019000Y006411D02*
X020182Y006411D01*
X020182Y006569D02*
X018969Y006569D01*
X018835Y006728D02*
X020182Y006728D01*
X020182Y006886D02*
X018677Y006886D01*
X018425Y007045D02*
X020182Y007045D01*
X020182Y007203D02*
X018440Y007203D01*
X018406Y007362D02*
X020182Y007362D01*
X020182Y007520D02*
X018307Y007520D01*
X018043Y007679D02*
X020182Y007679D01*
X020182Y007837D02*
X018304Y007837D01*
X017680Y006180D02*
X015930Y006180D01*
X015680Y006430D01*
X015680Y016430D01*
X015430Y016680D01*
X011180Y016680D01*
X009680Y015180D01*
X009680Y014180D02*
X011180Y015680D01*
X014930Y015680D01*
X015180Y015430D01*
X015180Y005430D01*
X015430Y005180D01*
X017680Y005180D01*
X017680Y004180D02*
X014930Y004180D01*
X014680Y004430D01*
X014680Y014430D01*
X014430Y014680D01*
X011180Y014680D01*
X010180Y013680D01*
X009180Y013680D01*
X008930Y013930D01*
X008930Y018930D01*
X009180Y019180D01*
X009680Y019180D01*
X008907Y019360D02*
X008659Y019111D01*
X008610Y018994D01*
X008610Y013866D01*
X008659Y013749D01*
X008909Y013499D01*
X008999Y013409D01*
X009116Y013360D01*
X009216Y013360D01*
X009183Y013279D01*
X009183Y013081D01*
X009258Y012898D01*
X009398Y012758D01*
X009581Y012683D01*
X009779Y012683D01*
X009962Y012758D01*
X010064Y012860D01*
X010744Y012860D01*
X010861Y012909D01*
X010953Y013001D01*
X010996Y012897D01*
X011137Y012756D01*
X011321Y012680D01*
X012039Y012680D01*
X012223Y012756D01*
X012364Y012897D01*
X012440Y013081D01*
X012440Y013279D01*
X012407Y013360D01*
X013797Y013360D01*
X013860Y013297D01*
X013860Y004563D01*
X013797Y004500D01*
X012327Y004500D01*
X012223Y004604D01*
X012039Y004680D01*
X011321Y004680D01*
X012039Y004680D01*
X012223Y004756D01*
X012364Y004897D01*
X012440Y005081D01*
X012440Y005279D01*
X012364Y005463D01*
X012223Y005604D01*
X012039Y005680D01*
X011321Y005680D01*
X011137Y005604D01*
X011000Y005467D01*
X011000Y006049D01*
X011012Y006011D01*
X011044Y005949D01*
X011084Y005893D01*
X011133Y005844D01*
X011189Y005804D01*
X011251Y005772D01*
X011317Y005751D01*
X011385Y005740D01*
X011680Y005740D01*
X011975Y005740D01*
X012043Y005751D01*
X012109Y005772D01*
X012171Y005804D01*
X012227Y005844D01*
X012276Y005893D01*
X012316Y005949D01*
X012348Y006011D01*
X012369Y006077D01*
X012380Y006145D01*
X012380Y006180D01*
X012380Y006215D01*
X012369Y006283D01*
X012348Y006349D01*
X012316Y006411D01*
X012276Y006467D01*
X012227Y006516D01*
X012171Y006556D01*
X012109Y006588D01*
X012043Y006609D01*
X011975Y006620D01*
X011680Y006620D01*
X011680Y006180D01*
X011680Y006180D01*
X012380Y006180D01*
X011680Y006180D01*
X011680Y006180D01*
X011680Y006620D01*
X011385Y006620D01*
X011317Y006609D01*
X011251Y006588D01*
X011189Y006556D01*
X011133Y006516D01*
X011084Y006467D01*
X011044Y006411D01*
X011012Y006349D01*
X011000Y006311D01*
X011000Y006893D01*
X011137Y006756D01*
X011321Y006680D01*
X012039Y006680D01*
X012223Y006756D01*
X012364Y006897D01*
X012440Y007081D01*
X012440Y007279D01*
X012364Y007463D01*
X012223Y007604D01*
X012039Y007680D01*
X012223Y007756D01*
X012364Y007897D01*
X012440Y008081D01*
X012440Y008279D01*
X012364Y008463D01*
X012223Y008604D01*
X012039Y008680D01*
X012223Y008756D01*
X012364Y008897D01*
X012440Y009081D01*
X012440Y009279D01*
X012364Y009463D01*
X012223Y009604D01*
X012039Y009680D01*
X012223Y009756D01*
X012364Y009897D01*
X012440Y010081D01*
X012440Y010279D01*
X012364Y010463D01*
X012223Y010604D01*
X012039Y010680D01*
X012223Y010756D01*
X012364Y010897D01*
X012440Y011081D01*
X012440Y011279D01*
X012364Y011463D01*
X012223Y011604D01*
X012039Y011680D01*
X011321Y011680D01*
X011137Y011604D01*
X010996Y011463D01*
X010953Y011358D01*
X010951Y011361D01*
X010861Y011451D01*
X010177Y012135D01*
X010177Y012279D01*
X010102Y012462D01*
X009962Y012602D01*
X009779Y012677D01*
X009581Y012677D01*
X009398Y012602D01*
X009258Y012462D01*
X009183Y012279D01*
X009183Y012081D01*
X009258Y011898D01*
X009398Y011758D01*
X009581Y011683D01*
X009725Y011683D01*
X009730Y011677D01*
X009581Y011677D01*
X009398Y011602D01*
X009296Y011500D01*
X008313Y011500D01*
X008250Y011563D01*
X008250Y019297D01*
X008313Y019360D01*
X008907Y019360D01*
X008796Y019249D02*
X008250Y019249D01*
X008250Y019091D02*
X008650Y019091D01*
X008610Y018932D02*
X008250Y018932D01*
X008250Y018774D02*
X008610Y018774D01*
X008610Y018615D02*
X008250Y018615D01*
X008250Y018457D02*
X008610Y018457D01*
X008610Y018298D02*
X008250Y018298D01*
X008250Y018140D02*
X008610Y018140D01*
X008610Y017981D02*
X008250Y017981D01*
X008250Y017823D02*
X008610Y017823D01*
X008610Y017664D02*
X008250Y017664D01*
X008250Y017506D02*
X008610Y017506D01*
X008610Y017347D02*
X008250Y017347D01*
X008250Y017189D02*
X008610Y017189D01*
X008610Y017030D02*
X008250Y017030D01*
X008250Y016872D02*
X008610Y016872D01*
X008610Y016713D02*
X008250Y016713D01*
X008250Y016555D02*
X008610Y016555D01*
X008610Y016396D02*
X008250Y016396D01*
X008250Y016238D02*
X008610Y016238D01*
X008610Y016079D02*
X008250Y016079D01*
X008250Y015921D02*
X008610Y015921D01*
X008610Y015762D02*
X008250Y015762D01*
X008250Y015604D02*
X008610Y015604D01*
X008610Y015445D02*
X008250Y015445D01*
X008250Y015287D02*
X008610Y015287D01*
X008610Y015128D02*
X008250Y015128D01*
X008250Y014970D02*
X008610Y014970D01*
X008610Y014811D02*
X008250Y014811D01*
X008250Y014653D02*
X008610Y014653D01*
X008610Y014494D02*
X008250Y014494D01*
X008250Y014336D02*
X008610Y014336D01*
X008610Y014177D02*
X008250Y014177D01*
X008250Y014019D02*
X008610Y014019D01*
X008613Y013860D02*
X008250Y013860D01*
X008250Y013702D02*
X008706Y013702D01*
X008864Y013543D02*
X008250Y013543D01*
X008250Y013385D02*
X009057Y013385D01*
X009183Y013226D02*
X008250Y013226D01*
X008250Y013068D02*
X009188Y013068D01*
X009254Y012909D02*
X008250Y012909D01*
X008250Y012751D02*
X009417Y012751D01*
X009388Y012592D02*
X008250Y012592D01*
X008250Y012434D02*
X009247Y012434D01*
X009183Y012275D02*
X008250Y012275D01*
X008250Y012117D02*
X009183Y012117D01*
X009233Y011958D02*
X008250Y011958D01*
X008250Y011800D02*
X009357Y011800D01*
X009493Y011641D02*
X008250Y011641D01*
X007930Y011430D02*
X007930Y019430D01*
X008180Y019680D01*
X010680Y019680D01*
X011180Y019180D01*
X011680Y019180D01*
X012039Y019680D02*
X011321Y019680D01*
X012039Y019680D01*
X012147Y019725D02*
X015433Y019725D01*
X015512Y019566D02*
X012261Y019566D01*
X012387Y019408D02*
X015611Y019408D01*
X015930Y019680D02*
X014930Y020680D01*
X008180Y020680D01*
X008451Y020360D02*
X009216Y020360D01*
X009183Y020279D01*
X009183Y020081D01*
X009216Y020000D01*
X008116Y020000D01*
X007999Y019951D01*
X007909Y019861D01*
X007659Y019611D01*
X007610Y019494D01*
X007610Y011366D01*
X007659Y011249D01*
X007749Y011159D01*
X007999Y010909D01*
X008092Y010870D01*
X008061Y010858D01*
X007977Y010773D01*
X007931Y010663D01*
X007931Y010352D01*
X007857Y010352D01*
X007746Y010306D01*
X007662Y010222D01*
X007616Y010112D01*
X007616Y009992D01*
X007662Y009882D01*
X007746Y009798D01*
X007798Y009776D01*
X007746Y009755D01*
X007662Y009671D01*
X007616Y009561D01*
X007616Y009441D01*
X007662Y009331D01*
X007746Y009247D01*
X007857Y009201D01*
X007931Y009201D01*
X007931Y008890D01*
X007972Y008792D01*
X007933Y008699D01*
X007857Y008699D01*
X007746Y008653D01*
X007662Y008568D01*
X007616Y008458D01*
X007616Y008339D01*
X007640Y008280D01*
X007616Y008222D01*
X007616Y008103D01*
X007662Y007992D01*
X007746Y007908D01*
X007798Y007887D01*
X007746Y007865D01*
X007662Y007781D01*
X007616Y007671D01*
X007616Y007551D01*
X007657Y007454D01*
X007616Y007356D01*
X007616Y006922D01*
X007662Y006811D01*
X007746Y006727D01*
X007857Y006681D01*
X008028Y006681D01*
X008061Y006648D01*
X008172Y006602D01*
X008527Y006602D01*
X008637Y006648D01*
X008722Y006733D01*
X008767Y006843D01*
X008767Y007435D01*
X008743Y007493D01*
X008767Y007551D01*
X008767Y007986D01*
X008743Y008044D01*
X008767Y008103D01*
X008767Y008222D01*
X008743Y008280D01*
X008767Y008339D01*
X008767Y008773D01*
X008743Y008832D01*
X008767Y008890D01*
X008767Y009324D01*
X008743Y009383D01*
X008767Y009441D01*
X008767Y009561D01*
X008727Y009658D01*
X008767Y009756D01*
X008767Y009876D01*
X008743Y009934D01*
X008766Y009988D01*
X008842Y009988D01*
X008952Y010034D01*
X009037Y010118D01*
X009082Y010229D01*
X009082Y010348D01*
X009037Y010458D01*
X008952Y010543D01*
X008842Y010588D01*
X008767Y010588D01*
X008767Y010663D01*
X008722Y010773D01*
X008637Y010858D01*
X008631Y010860D01*
X009296Y010860D01*
X009398Y010758D01*
X009581Y010683D01*
X009779Y010683D01*
X009962Y010758D01*
X010102Y010898D01*
X010177Y011081D01*
X010177Y011230D01*
X010360Y011047D01*
X010360Y005563D01*
X010047Y005250D01*
X008375Y005250D01*
X008234Y005391D01*
X007803Y005391D01*
X007500Y005088D01*
X007500Y020797D01*
X007563Y020860D01*
X007769Y020860D01*
X007762Y020853D01*
X007762Y020507D01*
X008007Y020262D01*
X008353Y020262D01*
X008451Y020360D01*
X008450Y020359D02*
X009215Y020359D01*
X009183Y020200D02*
X007500Y020200D01*
X007500Y020042D02*
X009199Y020042D01*
X010144Y020000D02*
X010177Y020081D01*
X010177Y020279D01*
X010144Y020360D01*
X010953Y020360D01*
X010920Y020279D01*
X010920Y020081D01*
X010996Y019897D01*
X011137Y019756D01*
X011321Y019680D01*
X011188Y019625D01*
X010861Y019951D01*
X010744Y020000D01*
X010144Y020000D01*
X010161Y020042D02*
X010936Y020042D01*
X010920Y020200D02*
X010177Y020200D01*
X010145Y020359D02*
X010953Y020359D01*
X010930Y019883D02*
X011010Y019883D01*
X011088Y019725D02*
X011213Y019725D01*
X010930Y018680D02*
X015930Y018680D01*
X016180Y018430D01*
X016180Y006930D01*
X013860Y006886D02*
X012353Y006886D01*
X012425Y007045D02*
X013860Y007045D01*
X013860Y007203D02*
X012440Y007203D01*
X012406Y007362D02*
X013860Y007362D01*
X013860Y007520D02*
X012307Y007520D01*
X012043Y007679D02*
X013860Y007679D01*
X013860Y007837D02*
X012304Y007837D01*
X012405Y007996D02*
X013860Y007996D01*
X013860Y008154D02*
X012440Y008154D01*
X012426Y008313D02*
X013860Y008313D01*
X013860Y008471D02*
X012356Y008471D01*
X012161Y008630D02*
X013860Y008630D01*
X013860Y008788D02*
X012255Y008788D01*
X012384Y008947D02*
X013860Y008947D01*
X013860Y009105D02*
X012440Y009105D01*
X012440Y009264D02*
X013860Y009264D01*
X013860Y009422D02*
X012381Y009422D01*
X012247Y009581D02*
X013860Y009581D01*
X013860Y009739D02*
X012182Y009739D01*
X012039Y009680D02*
X011321Y009680D01*
X011137Y009756D01*
X011000Y009893D01*
X011000Y009467D01*
X011137Y009604D01*
X011321Y009680D01*
X012039Y009680D01*
X012364Y009898D02*
X013860Y009898D01*
X013860Y010056D02*
X012430Y010056D01*
X012440Y010215D02*
X013860Y010215D01*
X013860Y010373D02*
X012401Y010373D01*
X012296Y010532D02*
X013860Y010532D01*
X013860Y010690D02*
X012064Y010690D01*
X012039Y010680D02*
X011321Y010680D01*
X011137Y010756D01*
X011000Y010893D01*
X011000Y010467D01*
X011137Y010604D01*
X011321Y010680D01*
X012039Y010680D01*
X012316Y010849D02*
X013860Y010849D01*
X013860Y011007D02*
X012410Y011007D01*
X012440Y011166D02*
X013860Y011166D01*
X013860Y011324D02*
X012422Y011324D01*
X012345Y011483D02*
X013860Y011483D01*
X013860Y011641D02*
X012134Y011641D01*
X012039Y011680D02*
X012223Y011756D01*
X012364Y011897D01*
X012440Y012081D01*
X012440Y012279D01*
X012364Y012463D01*
X012223Y012604D01*
X012039Y012680D01*
X011321Y012680D01*
X011137Y012604D01*
X010996Y012463D01*
X010920Y012279D01*
X010920Y012081D01*
X010996Y011897D01*
X011137Y011756D01*
X011321Y011680D01*
X012039Y011680D01*
X012267Y011800D02*
X013860Y011800D01*
X013860Y011958D02*
X012389Y011958D01*
X012440Y012117D02*
X013860Y012117D01*
X013860Y012275D02*
X012440Y012275D01*
X012376Y012434D02*
X013860Y012434D01*
X013860Y012592D02*
X012235Y012592D01*
X012210Y012751D02*
X013860Y012751D01*
X013860Y012909D02*
X012369Y012909D01*
X012435Y013068D02*
X013860Y013068D01*
X013860Y013226D02*
X012440Y013226D01*
X011180Y013680D02*
X013930Y013680D01*
X014180Y013430D01*
X014180Y004430D01*
X013930Y004180D01*
X011680Y004180D01*
X012039Y003680D02*
X011321Y003680D01*
X011137Y003604D01*
X010996Y003463D01*
X010920Y003279D01*
X010920Y003081D01*
X010996Y002897D01*
X011137Y002756D01*
X011321Y002680D01*
X012039Y002680D01*
X012223Y002756D01*
X012364Y002897D01*
X012440Y003081D01*
X012440Y003279D01*
X012364Y003463D01*
X012223Y003604D01*
X012039Y003680D01*
X012126Y003716D02*
X017234Y003716D01*
X017090Y003558D02*
X012270Y003558D01*
X012390Y003399D02*
X016970Y003399D01*
X016920Y003241D02*
X012440Y003241D01*
X012440Y003082D02*
X016920Y003082D01*
X016985Y002924D02*
X012375Y002924D01*
X012232Y002765D02*
X017128Y002765D01*
X017143Y002607D02*
X012051Y002607D01*
X012043Y002609D02*
X011975Y002620D01*
X011680Y002620D01*
X011680Y002180D01*
X011680Y002180D01*
X012380Y002180D01*
X012380Y002215D01*
X012369Y002283D01*
X012348Y002349D01*
X012316Y002411D01*
X012276Y002467D01*
X012227Y002516D01*
X012171Y002556D01*
X012109Y002588D01*
X012043Y002609D01*
X012289Y002448D02*
X016990Y002448D01*
X016996Y002463D02*
X016920Y002279D01*
X016920Y002081D01*
X016996Y001897D01*
X017137Y001756D01*
X017321Y001680D01*
X018039Y001680D01*
X018223Y001756D01*
X018364Y001897D01*
X018440Y002081D01*
X018440Y002279D01*
X018364Y002463D01*
X018223Y002604D01*
X018039Y002680D01*
X017321Y002680D01*
X017137Y002604D01*
X016996Y002463D01*
X016924Y002290D02*
X012367Y002290D01*
X012380Y002180D02*
X011680Y002180D01*
X011680Y002180D01*
X011680Y001740D01*
X011975Y001740D01*
X012043Y001751D01*
X012109Y001772D01*
X012171Y001804D01*
X012227Y001844D01*
X012276Y001893D01*
X012316Y001949D01*
X012348Y002011D01*
X012369Y002077D01*
X012380Y002145D01*
X012380Y002180D01*
X012378Y002131D02*
X016920Y002131D01*
X016965Y001973D02*
X012328Y001973D01*
X012185Y001814D02*
X017079Y001814D01*
X018281Y001814D02*
X020182Y001814D01*
X020182Y001656D02*
X007111Y001656D01*
X007065Y001629D02*
X007164Y001686D01*
X007254Y001756D01*
X007335Y001836D01*
X007404Y001927D01*
X007461Y002025D01*
X007505Y002130D01*
X007534Y002240D01*
X007546Y002330D01*
X006760Y002330D01*
X006760Y001544D01*
X006850Y001556D01*
X006960Y001586D01*
X007065Y001629D01*
X006760Y001656D02*
X006600Y001656D01*
X006600Y001544D02*
X006600Y002330D01*
X006760Y002330D01*
X006760Y002490D01*
X007546Y002490D01*
X007534Y002580D01*
X007505Y002690D01*
X007461Y002795D01*
X007404Y002894D01*
X007335Y002984D01*
X007254Y003065D01*
X007164Y003134D01*
X007065Y003191D01*
X006960Y003235D01*
X006850Y003264D01*
X006760Y003276D01*
X006760Y002490D01*
X006600Y002490D01*
X006600Y002330D01*
X005814Y002330D01*
X005826Y002240D01*
X005855Y002130D01*
X005899Y002025D01*
X005956Y001927D01*
X006025Y001836D01*
X006106Y001756D01*
X006196Y001686D01*
X006295Y001629D01*
X006400Y001586D01*
X006510Y001556D01*
X006600Y001544D01*
X006600Y001814D02*
X006760Y001814D01*
X006760Y001973D02*
X006600Y001973D01*
X006600Y002131D02*
X006760Y002131D01*
X006760Y002290D02*
X006600Y002290D01*
X006600Y002448D02*
X004893Y002448D01*
X004932Y002540D02*
X004932Y002910D01*
X004790Y003251D01*
X004529Y003513D01*
X004188Y003654D01*
X003818Y003654D01*
X003477Y003513D01*
X003215Y003251D01*
X003170Y003142D01*
X003170Y022560D01*
X020182Y022560D01*
X020182Y001420D01*
X003170Y001420D01*
X003170Y002308D01*
X003215Y002199D01*
X003477Y001938D01*
X003818Y001796D01*
X004188Y001796D01*
X004529Y001938D01*
X004790Y002199D01*
X004932Y002540D01*
X004932Y002607D02*
X005833Y002607D01*
X005826Y002580D02*
X005814Y002490D01*
X006600Y002490D01*
X006600Y003276D01*
X006510Y003264D01*
X006400Y003235D01*
X006295Y003191D01*
X006196Y003134D01*
X006106Y003065D01*
X006025Y002984D01*
X005956Y002894D01*
X005899Y002795D01*
X005855Y002690D01*
X005826Y002580D01*
X005886Y002765D02*
X004932Y002765D01*
X004926Y002924D02*
X005978Y002924D01*
X006128Y003082D02*
X004861Y003082D01*
X004795Y003241D02*
X006421Y003241D01*
X006396Y003399D02*
X006964Y003399D01*
X006939Y003241D02*
X008545Y003241D01*
X008550Y003251D02*
X008409Y002910D01*
X008409Y002540D01*
X008550Y002199D01*
X008811Y001938D01*
X009153Y001796D01*
X009522Y001796D01*
X009864Y001938D01*
X010125Y002199D01*
X010266Y002540D01*
X010266Y002910D01*
X010125Y003251D01*
X009864Y003513D01*
X009522Y003654D01*
X009153Y003654D01*
X008811Y003513D01*
X008550Y003251D01*
X008480Y003082D02*
X007232Y003082D01*
X007382Y002924D02*
X008414Y002924D01*
X008409Y002765D02*
X007474Y002765D01*
X007527Y002607D02*
X008409Y002607D01*
X008447Y002448D02*
X006760Y002448D01*
X006760Y002607D02*
X006600Y002607D01*
X006600Y002765D02*
X006760Y002765D01*
X006760Y002924D02*
X006600Y002924D01*
X006600Y003082D02*
X006760Y003082D01*
X006760Y003241D02*
X006600Y003241D01*
X006555Y003558D02*
X006805Y003558D01*
X007180Y003918D02*
X007192Y003906D01*
X007180Y003918D02*
X007180Y020930D01*
X007430Y021180D01*
X009680Y021180D01*
X009326Y021530D02*
X009296Y021500D01*
X007366Y021500D01*
X007249Y021451D01*
X006999Y021201D01*
X006909Y021111D01*
X006860Y020994D01*
X006860Y004310D01*
X006680Y004130D01*
X006384Y004426D01*
X005953Y004426D01*
X005755Y004228D01*
X005585Y004399D01*
X005861Y004675D01*
X005861Y005106D01*
X005557Y005411D01*
X005126Y005411D01*
X004830Y005115D01*
X004830Y005764D01*
X006769Y007703D01*
X006830Y007850D01*
X006830Y008010D01*
X006830Y010100D01*
X006830Y021264D01*
X007096Y021530D01*
X009326Y021530D01*
X007910Y020359D02*
X007500Y020359D01*
X007500Y020517D02*
X007762Y020517D01*
X007762Y020676D02*
X007500Y020676D01*
X007537Y020834D02*
X007762Y020834D01*
X007289Y021468D02*
X007034Y021468D01*
X007107Y021310D02*
X006875Y021310D01*
X006830Y021151D02*
X006948Y021151D01*
X006860Y020993D02*
X006830Y020993D01*
X006830Y020834D02*
X006860Y020834D01*
X006860Y020676D02*
X006830Y020676D01*
X006830Y020517D02*
X006860Y020517D01*
X006860Y020359D02*
X006830Y020359D01*
X006830Y020200D02*
X006860Y020200D01*
X006860Y020042D02*
X006830Y020042D01*
X006830Y019883D02*
X006860Y019883D01*
X006860Y019725D02*
X006830Y019725D01*
X006830Y019566D02*
X006860Y019566D01*
X006860Y019408D02*
X006830Y019408D01*
X006830Y019249D02*
X006860Y019249D01*
X006860Y019091D02*
X006830Y019091D01*
X006830Y018932D02*
X006860Y018932D01*
X006860Y018774D02*
X006830Y018774D01*
X006830Y018615D02*
X006860Y018615D01*
X006860Y018457D02*
X006830Y018457D01*
X006830Y018298D02*
X006860Y018298D01*
X006860Y018140D02*
X006830Y018140D01*
X006830Y017981D02*
X006860Y017981D01*
X006860Y017823D02*
X006830Y017823D01*
X006830Y017664D02*
X006860Y017664D01*
X006860Y017506D02*
X006830Y017506D01*
X006830Y017347D02*
X006860Y017347D01*
X006860Y017189D02*
X006830Y017189D01*
X006830Y017030D02*
X006860Y017030D01*
X006860Y016872D02*
X006830Y016872D01*
X006830Y016713D02*
X006860Y016713D01*
X006860Y016555D02*
X006830Y016555D01*
X006830Y016396D02*
X006860Y016396D01*
X006860Y016238D02*
X006830Y016238D01*
X006830Y016079D02*
X006860Y016079D01*
X006860Y015921D02*
X006830Y015921D01*
X006830Y015762D02*
X006860Y015762D01*
X006860Y015604D02*
X006830Y015604D01*
X006830Y015445D02*
X006860Y015445D01*
X006860Y015287D02*
X006830Y015287D01*
X006830Y015128D02*
X006860Y015128D01*
X006860Y014970D02*
X006830Y014970D01*
X006830Y014811D02*
X006860Y014811D01*
X006860Y014653D02*
X006830Y014653D01*
X006830Y014494D02*
X006860Y014494D01*
X006860Y014336D02*
X006830Y014336D01*
X006830Y014177D02*
X006860Y014177D01*
X006860Y014019D02*
X006830Y014019D01*
X006830Y013860D02*
X006860Y013860D01*
X006860Y013702D02*
X006830Y013702D01*
X006830Y013543D02*
X006860Y013543D01*
X006860Y013385D02*
X006830Y013385D01*
X006830Y013226D02*
X006860Y013226D01*
X006860Y013068D02*
X006830Y013068D01*
X006830Y012909D02*
X006860Y012909D01*
X006860Y012751D02*
X006830Y012751D01*
X006830Y012592D02*
X006860Y012592D01*
X006860Y012434D02*
X006830Y012434D01*
X006830Y012275D02*
X006860Y012275D01*
X006860Y012117D02*
X006830Y012117D01*
X006830Y011958D02*
X006860Y011958D01*
X006860Y011800D02*
X006830Y011800D01*
X006830Y011641D02*
X006860Y011641D01*
X006860Y011483D02*
X006830Y011483D01*
X006830Y011324D02*
X006860Y011324D01*
X006860Y011166D02*
X006830Y011166D01*
X006830Y011007D02*
X006860Y011007D01*
X006860Y010849D02*
X006830Y010849D01*
X006830Y010690D02*
X006860Y010690D01*
X006860Y010532D02*
X006830Y010532D01*
X006830Y010373D02*
X006860Y010373D01*
X006860Y010215D02*
X006830Y010215D01*
X006830Y010056D02*
X006860Y010056D01*
X006860Y009898D02*
X006830Y009898D01*
X006830Y009739D02*
X006860Y009739D01*
X006860Y009581D02*
X006830Y009581D01*
X006830Y009422D02*
X006860Y009422D01*
X006860Y009264D02*
X006830Y009264D01*
X006830Y009105D02*
X006860Y009105D01*
X006860Y008947D02*
X006830Y008947D01*
X006830Y008788D02*
X006860Y008788D01*
X006860Y008630D02*
X006830Y008630D01*
X006830Y008471D02*
X006860Y008471D01*
X006860Y008313D02*
X006830Y008313D01*
X006830Y008154D02*
X006860Y008154D01*
X006860Y007996D02*
X006830Y007996D01*
X006824Y007837D02*
X006860Y007837D01*
X006860Y007679D02*
X006744Y007679D01*
X006860Y007520D02*
X006586Y007520D01*
X006427Y007362D02*
X006860Y007362D01*
X006860Y007203D02*
X006269Y007203D01*
X006110Y007045D02*
X006860Y007045D01*
X006860Y006886D02*
X005952Y006886D01*
X005793Y006728D02*
X006860Y006728D01*
X006860Y006569D02*
X005635Y006569D01*
X005476Y006411D02*
X006860Y006411D01*
X006860Y006252D02*
X005318Y006252D01*
X005159Y006094D02*
X006860Y006094D01*
X006860Y005935D02*
X005001Y005935D01*
X004842Y005777D02*
X006860Y005777D01*
X006860Y005618D02*
X004830Y005618D01*
X004830Y005460D02*
X006860Y005460D01*
X006860Y005301D02*
X005666Y005301D01*
X005825Y005143D02*
X006860Y005143D01*
X006860Y004984D02*
X005861Y004984D01*
X005861Y004826D02*
X006860Y004826D01*
X006860Y004667D02*
X005853Y004667D01*
X005695Y004509D02*
X006860Y004509D01*
X006860Y004350D02*
X006460Y004350D01*
X006618Y004192D02*
X006742Y004192D01*
X007420Y003399D02*
X008697Y003399D01*
X008919Y003558D02*
X008320Y003558D01*
X008209Y003446D02*
X008479Y003716D01*
X011234Y003716D01*
X011090Y003558D02*
X009756Y003558D01*
X009978Y003399D02*
X010970Y003399D01*
X010920Y003241D02*
X010130Y003241D01*
X010195Y003082D02*
X010920Y003082D01*
X010985Y002924D02*
X010261Y002924D01*
X010266Y002765D02*
X011128Y002765D01*
X011251Y002588D02*
X011189Y002556D01*
X011133Y002516D01*
X011084Y002467D01*
X011044Y002411D01*
X011012Y002349D01*
X010991Y002283D01*
X010980Y002215D01*
X010980Y002180D01*
X011680Y002180D01*
X011680Y002180D01*
X011680Y002180D01*
X011680Y002620D01*
X011385Y002620D01*
X011317Y002609D01*
X011251Y002588D01*
X011309Y002607D02*
X010266Y002607D01*
X010228Y002448D02*
X011071Y002448D01*
X010993Y002290D02*
X010162Y002290D01*
X010057Y002131D02*
X010982Y002131D01*
X010980Y002145D02*
X010991Y002077D01*
X011012Y002011D01*
X011044Y001949D01*
X011084Y001893D01*
X011133Y001844D01*
X011189Y001804D01*
X011251Y001772D01*
X011317Y001751D01*
X011385Y001740D01*
X011680Y001740D01*
X011680Y002180D01*
X010980Y002180D01*
X010980Y002145D01*
X011032Y001973D02*
X009898Y001973D01*
X009565Y001814D02*
X011175Y001814D01*
X011680Y001814D02*
X011680Y001814D01*
X011680Y001973D02*
X011680Y001973D01*
X011680Y002131D02*
X011680Y002131D01*
X011680Y002290D02*
X011680Y002290D01*
X011680Y002448D02*
X011680Y002448D01*
X011680Y002607D02*
X011680Y002607D01*
X011018Y003875D02*
X008479Y003875D01*
X008479Y003898D02*
X008027Y003898D01*
X008027Y003446D01*
X008209Y003446D01*
X008027Y003558D02*
X008010Y003558D01*
X008010Y003716D02*
X008027Y003716D01*
X008010Y003875D02*
X008027Y003875D01*
X007717Y003558D02*
X007578Y003558D01*
X008479Y003716D02*
X008479Y003898D01*
X008479Y004033D02*
X010940Y004033D01*
X010920Y004192D02*
X008384Y004192D01*
X008225Y004350D02*
X010949Y004350D01*
X011041Y004509D02*
X008392Y004509D01*
X008019Y004871D02*
X008078Y004930D01*
X010180Y004930D01*
X010680Y005430D01*
X010680Y011180D01*
X009680Y012180D01*
X009972Y012592D02*
X011125Y012592D01*
X011150Y012751D02*
X009943Y012751D01*
X010113Y012434D02*
X010984Y012434D01*
X010920Y012275D02*
X010177Y012275D01*
X010196Y012117D02*
X010920Y012117D01*
X010971Y011958D02*
X010355Y011958D01*
X010513Y011800D02*
X011093Y011800D01*
X011226Y011641D02*
X010672Y011641D01*
X010830Y011483D02*
X011015Y011483D01*
X011000Y010849D02*
X011044Y010849D01*
X011000Y010690D02*
X011296Y010690D01*
X011064Y010532D02*
X011000Y010532D01*
X010360Y010532D02*
X009940Y010532D01*
X009965Y010514D02*
X009909Y010554D01*
X009848Y010585D01*
X009782Y010607D01*
X009714Y010617D01*
X009680Y010617D01*
X009680Y010180D01*
X009680Y010180D01*
X010117Y010180D01*
X010117Y010214D01*
X010107Y010282D01*
X010085Y010348D01*
X010054Y010409D01*
X010014Y010465D01*
X009965Y010514D01*
X010073Y010373D02*
X010360Y010373D01*
X010360Y010215D02*
X010117Y010215D01*
X010117Y010180D02*
X009680Y010180D01*
X009680Y010180D01*
X009680Y010180D01*
X009243Y010180D01*
X009243Y010146D01*
X009253Y010078D01*
X009275Y010012D01*
X009306Y009951D01*
X009346Y009895D01*
X009395Y009846D01*
X009451Y009806D01*
X009512Y009775D01*
X009578Y009753D01*
X009646Y009743D01*
X009680Y009743D01*
X009714Y009743D01*
X009782Y009753D01*
X009848Y009775D01*
X009909Y009806D01*
X009965Y009846D01*
X010014Y009895D01*
X010054Y009951D01*
X010085Y010012D01*
X010107Y010078D01*
X010117Y010146D01*
X010117Y010180D01*
X010100Y010056D02*
X010360Y010056D01*
X010360Y009898D02*
X010016Y009898D01*
X009962Y009602D02*
X009779Y009677D01*
X009581Y009677D01*
X009398Y009602D01*
X009258Y009462D01*
X009183Y009279D01*
X009183Y009081D01*
X009258Y008898D01*
X009398Y008758D01*
X009581Y008683D01*
X009779Y008683D01*
X009962Y008758D01*
X010102Y008898D01*
X010177Y009081D01*
X010177Y009279D01*
X010102Y009462D01*
X009962Y009602D01*
X009983Y009581D02*
X010360Y009581D01*
X010360Y009739D02*
X008760Y009739D01*
X008759Y009581D02*
X009377Y009581D01*
X009242Y009422D02*
X008759Y009422D01*
X008767Y009264D02*
X009183Y009264D01*
X009183Y009105D02*
X008767Y009105D01*
X008767Y008947D02*
X009238Y008947D01*
X009368Y008788D02*
X008761Y008788D01*
X008767Y008630D02*
X009465Y008630D01*
X009398Y008602D02*
X009258Y008462D01*
X009183Y008279D01*
X009183Y008081D01*
X009258Y007898D01*
X009398Y007758D01*
X009581Y007683D01*
X009779Y007683D01*
X009962Y007758D01*
X010102Y007898D01*
X010177Y008081D01*
X010177Y008279D01*
X010102Y008462D01*
X009962Y008602D01*
X009779Y008677D01*
X009581Y008677D01*
X009398Y008602D01*
X009267Y008471D02*
X008767Y008471D01*
X008756Y008313D02*
X009196Y008313D01*
X009183Y008154D02*
X008767Y008154D01*
X008763Y007996D02*
X009218Y007996D01*
X009319Y007837D02*
X008767Y007837D01*
X008767Y007679D02*
X010360Y007679D01*
X010360Y007837D02*
X010041Y007837D01*
X010142Y007996D02*
X010360Y007996D01*
X010360Y008154D02*
X010177Y008154D01*
X010164Y008313D02*
X010360Y008313D01*
X010360Y008471D02*
X010093Y008471D01*
X009895Y008630D02*
X010360Y008630D01*
X010360Y008788D02*
X009992Y008788D01*
X010122Y008947D02*
X010360Y008947D01*
X010360Y009105D02*
X010177Y009105D01*
X010177Y009264D02*
X010360Y009264D01*
X010360Y009422D02*
X010118Y009422D01*
X009680Y009743D02*
X009680Y010180D01*
X009680Y010617D01*
X009646Y010617D01*
X009578Y010607D01*
X009512Y010585D01*
X009451Y010554D01*
X009395Y010514D01*
X009346Y010465D01*
X009306Y010409D01*
X009275Y010348D01*
X009253Y010282D01*
X009243Y010214D01*
X009243Y010180D01*
X009680Y010180D01*
X009680Y010180D01*
X009680Y009743D01*
X009680Y009898D02*
X009680Y009898D01*
X009680Y010056D02*
X009680Y010056D01*
X009680Y010215D02*
X009680Y010215D01*
X009680Y010373D02*
X009680Y010373D01*
X009680Y010532D02*
X009680Y010532D01*
X009797Y010690D02*
X010360Y010690D01*
X010360Y010849D02*
X010052Y010849D01*
X010147Y011007D02*
X010360Y011007D01*
X010242Y011166D02*
X010177Y011166D01*
X009680Y011180D02*
X008180Y011180D01*
X007930Y011430D01*
X007742Y011166D02*
X007500Y011166D01*
X007500Y011324D02*
X007628Y011324D01*
X007610Y011483D02*
X007500Y011483D01*
X007500Y011641D02*
X007610Y011641D01*
X007610Y011800D02*
X007500Y011800D01*
X007500Y011958D02*
X007610Y011958D01*
X007610Y012117D02*
X007500Y012117D01*
X007500Y012275D02*
X007610Y012275D01*
X007610Y012434D02*
X007500Y012434D01*
X007500Y012592D02*
X007610Y012592D01*
X007610Y012751D02*
X007500Y012751D01*
X007500Y012909D02*
X007610Y012909D01*
X007610Y013068D02*
X007500Y013068D01*
X007500Y013226D02*
X007610Y013226D01*
X007610Y013385D02*
X007500Y013385D01*
X007500Y013543D02*
X007610Y013543D01*
X007610Y013702D02*
X007500Y013702D01*
X007500Y013860D02*
X007610Y013860D01*
X007610Y014019D02*
X007500Y014019D01*
X007500Y014177D02*
X007610Y014177D01*
X007610Y014336D02*
X007500Y014336D01*
X007500Y014494D02*
X007610Y014494D01*
X007610Y014653D02*
X007500Y014653D01*
X007500Y014811D02*
X007610Y014811D01*
X007610Y014970D02*
X007500Y014970D01*
X007500Y015128D02*
X007610Y015128D01*
X007610Y015287D02*
X007500Y015287D01*
X007500Y015445D02*
X007610Y015445D01*
X007610Y015604D02*
X007500Y015604D01*
X007500Y015762D02*
X007610Y015762D01*
X007610Y015921D02*
X007500Y015921D01*
X007500Y016079D02*
X007610Y016079D01*
X007610Y016238D02*
X007500Y016238D01*
X007500Y016396D02*
X007610Y016396D01*
X007610Y016555D02*
X007500Y016555D01*
X007500Y016713D02*
X007610Y016713D01*
X007610Y016872D02*
X007500Y016872D01*
X007500Y017030D02*
X007610Y017030D01*
X007610Y017189D02*
X007500Y017189D01*
X007500Y017347D02*
X007610Y017347D01*
X007610Y017506D02*
X007500Y017506D01*
X007500Y017664D02*
X007610Y017664D01*
X007610Y017823D02*
X007500Y017823D01*
X007500Y017981D02*
X007610Y017981D01*
X007610Y018140D02*
X007500Y018140D01*
X007500Y018298D02*
X007610Y018298D01*
X007610Y018457D02*
X007500Y018457D01*
X007500Y018615D02*
X007610Y018615D01*
X007610Y018774D02*
X007500Y018774D01*
X007500Y018932D02*
X007610Y018932D01*
X007610Y019091D02*
X007500Y019091D01*
X007500Y019249D02*
X007610Y019249D01*
X007610Y019408D02*
X007500Y019408D01*
X007500Y019566D02*
X007640Y019566D01*
X007772Y019725D02*
X007500Y019725D01*
X007500Y019883D02*
X007930Y019883D01*
X009680Y018180D02*
X010430Y018180D01*
X010930Y018680D01*
X010993Y018291D02*
X010991Y018283D01*
X010980Y018215D01*
X010980Y018180D01*
X011680Y018180D01*
X012380Y018180D01*
X012380Y018215D01*
X012369Y018283D01*
X012348Y018349D01*
X012342Y018360D01*
X015797Y018360D01*
X015860Y018297D01*
X015860Y016703D01*
X015611Y016951D01*
X015494Y017000D01*
X012407Y017000D01*
X012440Y017081D01*
X012440Y017279D01*
X012364Y017463D01*
X012223Y017604D01*
X012039Y017680D01*
X011321Y017680D01*
X011137Y017604D01*
X010996Y017463D01*
X010920Y017279D01*
X010920Y017081D01*
X010981Y016933D01*
X010909Y016861D01*
X010177Y016130D01*
X010177Y016279D01*
X010102Y016462D01*
X009962Y016602D01*
X009779Y016677D01*
X009581Y016677D01*
X009398Y016602D01*
X009258Y016462D01*
X009250Y016442D01*
X009250Y016918D01*
X009258Y016898D01*
X009398Y016758D01*
X009581Y016683D01*
X009779Y016683D01*
X009962Y016758D01*
X010102Y016898D01*
X010177Y017081D01*
X010177Y017279D01*
X010102Y017462D01*
X009962Y017602D01*
X009779Y017677D01*
X009581Y017677D01*
X009398Y017602D01*
X009258Y017462D01*
X009250Y017442D01*
X009250Y017918D01*
X009258Y017898D01*
X009398Y017758D01*
X009581Y017683D01*
X009779Y017683D01*
X009962Y017758D01*
X010064Y017860D01*
X010494Y017860D01*
X010611Y017909D01*
X010993Y018291D01*
X010980Y018180D02*
X010980Y018145D01*
X010991Y018077D01*
X011012Y018011D01*
X011044Y017949D01*
X011084Y017893D01*
X011133Y017844D01*
X011189Y017804D01*
X011251Y017772D01*
X011317Y017751D01*
X011385Y017740D01*
X011680Y017740D01*
X011975Y017740D01*
X012043Y017751D01*
X012109Y017772D01*
X012171Y017804D01*
X012227Y017844D01*
X012276Y017893D01*
X012316Y017949D01*
X012348Y018011D01*
X012369Y018077D01*
X012380Y018145D01*
X012380Y018180D01*
X011680Y018180D01*
X011680Y018180D01*
X011680Y017740D01*
X011680Y018180D01*
X011680Y018180D01*
X011680Y018180D01*
X010980Y018180D01*
X010981Y018140D02*
X010842Y018140D01*
X010684Y017981D02*
X011028Y017981D01*
X011163Y017823D02*
X010026Y017823D01*
X009811Y017664D02*
X011282Y017664D01*
X011038Y017506D02*
X010058Y017506D01*
X010149Y017347D02*
X010948Y017347D01*
X010920Y017189D02*
X010177Y017189D01*
X010156Y017030D02*
X010941Y017030D01*
X010919Y016872D02*
X010075Y016872D01*
X009853Y016713D02*
X010760Y016713D01*
X010602Y016555D02*
X010009Y016555D01*
X010129Y016396D02*
X010443Y016396D01*
X010285Y016238D02*
X010177Y016238D01*
X009507Y016713D02*
X009250Y016713D01*
X009250Y016555D02*
X009351Y016555D01*
X009285Y016872D02*
X009250Y016872D01*
X009250Y017506D02*
X009302Y017506D01*
X009250Y017664D02*
X009549Y017664D01*
X009334Y017823D02*
X009250Y017823D01*
X011680Y017823D02*
X011680Y017823D01*
X011680Y017981D02*
X011680Y017981D01*
X011680Y018140D02*
X011680Y018140D01*
X012078Y017664D02*
X015860Y017664D01*
X015860Y017506D02*
X012322Y017506D01*
X012412Y017347D02*
X015860Y017347D01*
X015860Y017189D02*
X012440Y017189D01*
X012419Y017030D02*
X015860Y017030D01*
X015860Y016872D02*
X015691Y016872D01*
X015850Y016713D02*
X015860Y016713D01*
X016500Y016872D02*
X017021Y016872D01*
X016941Y017030D02*
X016500Y017030D01*
X016500Y017189D02*
X016920Y017189D01*
X016948Y017347D02*
X016500Y017347D01*
X016500Y017506D02*
X017038Y017506D01*
X017282Y017664D02*
X016500Y017664D01*
X016500Y017823D02*
X017070Y017823D01*
X016961Y017981D02*
X016500Y017981D01*
X016500Y018140D02*
X016920Y018140D01*
X016928Y018298D02*
X016500Y018298D01*
X016500Y018457D02*
X016993Y018457D01*
X017164Y018615D02*
X016448Y018615D01*
X016289Y018774D02*
X017119Y018774D01*
X017321Y018680D02*
X018039Y018680D01*
X018223Y018604D01*
X018280Y018547D01*
X018280Y018813D01*
X018223Y018756D01*
X018039Y018680D01*
X017321Y018680D01*
X017680Y019180D02*
X016680Y019180D01*
X016430Y019430D01*
X016430Y021180D01*
X016127Y021468D02*
X012359Y021468D01*
X012364Y021463D02*
X012297Y021530D01*
X016189Y021530D01*
X016012Y021353D01*
X016012Y021007D01*
X016110Y020909D01*
X016110Y020091D01*
X016103Y020098D01*
X015964Y020098D01*
X015111Y020951D01*
X014994Y021000D01*
X012407Y021000D01*
X012440Y021081D01*
X012440Y021279D01*
X012364Y021463D01*
X012428Y021310D02*
X016012Y021310D01*
X016012Y021151D02*
X012440Y021151D01*
X012407Y020359D02*
X014799Y020359D01*
X014957Y020200D02*
X012440Y020200D01*
X012424Y020042D02*
X015116Y020042D01*
X015274Y019883D02*
X012350Y019883D01*
X012440Y019249D02*
X016159Y019249D01*
X016317Y019091D02*
X012440Y019091D01*
X012364Y018298D02*
X015859Y018298D01*
X015860Y018140D02*
X012379Y018140D01*
X012332Y017981D02*
X015860Y017981D01*
X015860Y017823D02*
X012197Y017823D01*
X015012Y020993D02*
X016026Y020993D01*
X016110Y020834D02*
X015229Y020834D01*
X015387Y020676D02*
X016110Y020676D01*
X016110Y020517D02*
X015546Y020517D01*
X015704Y020359D02*
X016110Y020359D01*
X016110Y020200D02*
X015863Y020200D01*
X016131Y018932D02*
X016475Y018932D01*
X017321Y017680D02*
X018039Y017680D01*
X017321Y017680D01*
X018039Y017680D02*
X018223Y017604D01*
X018247Y017580D01*
X018264Y017580D01*
X018280Y017596D01*
X018280Y017813D01*
X018223Y017756D01*
X018039Y017680D01*
X018078Y017664D02*
X018280Y017664D01*
X019080Y018140D02*
X019115Y018140D01*
X019380Y018140D02*
X019480Y018140D01*
X019480Y018298D02*
X019380Y018298D01*
X019380Y018457D02*
X019480Y018457D01*
X019480Y018615D02*
X019380Y018615D01*
X018280Y018615D02*
X018196Y018615D01*
X018241Y018774D02*
X018280Y018774D01*
X017482Y021944D02*
X020182Y021944D01*
X020182Y022102D02*
X017324Y022102D01*
X017165Y022261D02*
X020182Y022261D01*
X020182Y022419D02*
X003170Y022419D01*
X003170Y022261D02*
X006695Y022261D01*
X006536Y022102D02*
X003170Y022102D01*
X003170Y021944D02*
X006378Y021944D01*
X006219Y021785D02*
X003170Y021785D01*
X003170Y021627D02*
X003272Y021627D01*
X003287Y021641D02*
X003219Y021573D01*
X003183Y021485D01*
X003183Y020875D01*
X003219Y020787D01*
X003287Y020719D01*
X003375Y020683D01*
X003985Y020683D01*
X004073Y020719D01*
X004141Y020787D01*
X004177Y020875D01*
X004177Y021485D01*
X004141Y021573D01*
X004073Y021641D01*
X003985Y021677D01*
X003375Y021677D01*
X003287Y021641D01*
X003183Y021468D02*
X003170Y021468D01*
X003170Y021310D02*
X003183Y021310D01*
X003170Y021151D02*
X003183Y021151D01*
X003170Y020993D02*
X003183Y020993D01*
X003170Y020834D02*
X003199Y020834D01*
X003170Y020676D02*
X003576Y020676D01*
X003581Y020677D02*
X003398Y020602D01*
X003258Y020462D01*
X003183Y020279D01*
X003183Y020081D01*
X003258Y019898D01*
X003398Y019758D01*
X003581Y019683D01*
X003779Y019683D01*
X003962Y019758D01*
X004102Y019898D01*
X004177Y020081D01*
X004177Y020279D01*
X004102Y020462D01*
X003962Y020602D01*
X003779Y020677D01*
X003581Y020677D01*
X003784Y020676D02*
X006030Y020676D01*
X006030Y020834D02*
X004161Y020834D01*
X004177Y020993D02*
X006030Y020993D01*
X006030Y021151D02*
X004177Y021151D01*
X004177Y021310D02*
X006030Y021310D01*
X006030Y021468D02*
X004177Y021468D01*
X004088Y021627D02*
X006078Y021627D01*
X006030Y020517D02*
X004047Y020517D01*
X004145Y020359D02*
X006030Y020359D01*
X006030Y020200D02*
X004177Y020200D01*
X004161Y020042D02*
X006030Y020042D01*
X006030Y019883D02*
X004087Y019883D01*
X003880Y019725D02*
X006030Y019725D01*
X006030Y019566D02*
X003998Y019566D01*
X003962Y019602D02*
X003779Y019677D01*
X003581Y019677D01*
X003398Y019602D01*
X003258Y019462D01*
X003183Y019279D01*
X003183Y019081D01*
X003258Y018898D01*
X003398Y018758D01*
X003581Y018683D01*
X003779Y018683D01*
X003962Y018758D01*
X004102Y018898D01*
X004177Y019081D01*
X004177Y019279D01*
X004102Y019462D01*
X003962Y019602D01*
X004124Y019408D02*
X006030Y019408D01*
X006030Y019249D02*
X004177Y019249D01*
X004177Y019091D02*
X006030Y019091D01*
X006030Y018932D02*
X004116Y018932D01*
X003977Y018774D02*
X006030Y018774D01*
X006030Y018615D02*
X003930Y018615D01*
X003962Y018602D02*
X003779Y018677D01*
X003581Y018677D01*
X003398Y018602D01*
X003258Y018462D01*
X003183Y018279D01*
X003183Y018081D01*
X003258Y017898D01*
X003398Y017758D01*
X003581Y017683D01*
X003779Y017683D01*
X003962Y017758D01*
X004102Y017898D01*
X004177Y018081D01*
X004177Y018279D01*
X004102Y018462D01*
X003962Y018602D01*
X004104Y018457D02*
X006030Y018457D01*
X006030Y018298D02*
X004170Y018298D01*
X004177Y018140D02*
X006030Y018140D01*
X006030Y017981D02*
X004136Y017981D01*
X004026Y017823D02*
X006030Y017823D01*
X006030Y017664D02*
X003811Y017664D01*
X003779Y017677D02*
X003581Y017677D01*
X003398Y017602D01*
X003258Y017462D01*
X003183Y017279D01*
X003183Y017081D01*
X003258Y016898D01*
X003398Y016758D01*
X003581Y016683D01*
X003779Y016683D01*
X003962Y016758D01*
X004102Y016898D01*
X004177Y017081D01*
X004177Y017279D01*
X004102Y017462D01*
X003962Y017602D01*
X003779Y017677D01*
X003549Y017664D02*
X003170Y017664D01*
X003170Y017506D02*
X003302Y017506D01*
X003211Y017347D02*
X003170Y017347D01*
X003170Y017189D02*
X003183Y017189D01*
X003170Y017030D02*
X003204Y017030D01*
X003170Y016872D02*
X003285Y016872D01*
X003170Y016713D02*
X003507Y016713D01*
X003581Y016677D02*
X003398Y016602D01*
X003258Y016462D01*
X003183Y016279D01*
X003183Y016081D01*
X003258Y015898D01*
X003398Y015758D01*
X003581Y015683D01*
X003779Y015683D01*
X003962Y015758D01*
X004102Y015898D01*
X004177Y016081D01*
X004177Y016279D01*
X004102Y016462D01*
X003962Y016602D01*
X003779Y016677D01*
X003581Y016677D01*
X003351Y016555D02*
X003170Y016555D01*
X003170Y016396D02*
X003231Y016396D01*
X003183Y016238D02*
X003170Y016238D01*
X003170Y016079D02*
X003183Y016079D01*
X003170Y015921D02*
X003249Y015921D01*
X003170Y015762D02*
X003394Y015762D01*
X003402Y015604D02*
X003170Y015604D01*
X003170Y015445D02*
X003251Y015445D01*
X003258Y015462D02*
X003183Y015279D01*
X003183Y015081D01*
X003258Y014898D01*
X003398Y014758D01*
X003581Y014683D01*
X003779Y014683D01*
X003962Y014758D01*
X004102Y014898D01*
X004177Y015081D01*
X004177Y015279D01*
X004102Y015462D01*
X003962Y015602D01*
X003779Y015677D01*
X003581Y015677D01*
X003398Y015602D01*
X003258Y015462D01*
X003186Y015287D02*
X003170Y015287D01*
X003170Y015128D02*
X003183Y015128D01*
X003170Y014970D02*
X003229Y014970D01*
X003170Y014811D02*
X003345Y014811D01*
X003398Y014602D02*
X003258Y014462D01*
X003183Y014279D01*
X003183Y014081D01*
X003258Y013898D01*
X003398Y013758D01*
X003581Y013683D01*
X003779Y013683D01*
X003962Y013758D01*
X004102Y013898D01*
X004177Y014081D01*
X004177Y014279D01*
X004102Y014462D01*
X003962Y014602D01*
X003779Y014677D01*
X003581Y014677D01*
X003398Y014602D01*
X003521Y014653D02*
X003170Y014653D01*
X003170Y014494D02*
X003290Y014494D01*
X003206Y014336D02*
X003170Y014336D01*
X003170Y014177D02*
X003183Y014177D01*
X003170Y014019D02*
X003208Y014019D01*
X003170Y013860D02*
X003296Y013860D01*
X003170Y013702D02*
X003535Y013702D01*
X003581Y013677D02*
X003398Y013602D01*
X003258Y013462D01*
X003183Y013279D01*
X003183Y013081D01*
X003258Y012898D01*
X003398Y012758D01*
X003581Y012683D01*
X003779Y012683D01*
X003962Y012758D01*
X004102Y012898D01*
X004177Y013081D01*
X004177Y013279D01*
X004102Y013462D01*
X003962Y013602D01*
X003779Y013677D01*
X003581Y013677D01*
X003825Y013702D02*
X004340Y013702D01*
X004352Y013543D02*
X004021Y013543D01*
X004134Y013385D02*
X004418Y013385D01*
X004570Y013226D02*
X004177Y013226D01*
X004172Y013068D02*
X004504Y013068D01*
X004390Y012909D02*
X004106Y012909D01*
X003943Y012751D02*
X004340Y012751D01*
X004340Y012592D02*
X003972Y012592D01*
X003962Y012602D02*
X003779Y012677D01*
X003581Y012677D01*
X003398Y012602D01*
X003258Y012462D01*
X003183Y012279D01*
X003183Y012081D01*
X003258Y011898D01*
X003398Y011758D01*
X003581Y011683D01*
X003779Y011683D01*
X003962Y011758D01*
X004102Y011898D01*
X004177Y012081D01*
X004177Y012279D01*
X004102Y012462D01*
X003962Y012602D01*
X004113Y012434D02*
X004398Y012434D01*
X004521Y012275D02*
X004177Y012275D01*
X004177Y012117D02*
X004553Y012117D01*
X004411Y011958D02*
X004127Y011958D01*
X004003Y011800D02*
X004345Y011800D01*
X004340Y011641D02*
X003867Y011641D01*
X003779Y011677D02*
X003962Y011602D01*
X004102Y011462D01*
X004177Y011279D01*
X004177Y011081D01*
X004102Y010898D01*
X003962Y010758D01*
X003779Y010683D01*
X003581Y010683D01*
X003398Y010758D01*
X003258Y010898D01*
X003183Y011081D01*
X003183Y011279D01*
X003258Y011462D01*
X003398Y011602D01*
X003581Y011677D01*
X003779Y011677D01*
X003493Y011641D02*
X003170Y011641D01*
X003170Y011483D02*
X003279Y011483D01*
X003201Y011324D02*
X003170Y011324D01*
X003170Y011166D02*
X003183Y011166D01*
X003170Y011007D02*
X003213Y011007D01*
X003170Y010849D02*
X003308Y010849D01*
X003170Y010690D02*
X003563Y010690D01*
X003797Y010690D02*
X004340Y010690D01*
X004365Y010849D02*
X004052Y010849D01*
X004147Y011007D02*
X004443Y011007D01*
X004641Y011166D02*
X004177Y011166D01*
X004159Y011324D02*
X004472Y011324D01*
X004377Y011483D02*
X004081Y011483D01*
X003357Y011800D02*
X003170Y011800D01*
X003170Y011958D02*
X003233Y011958D01*
X003183Y012117D02*
X003170Y012117D01*
X003170Y012275D02*
X003183Y012275D01*
X003170Y012434D02*
X003247Y012434D01*
X003170Y012592D02*
X003388Y012592D01*
X003417Y012751D02*
X003170Y012751D01*
X003170Y012909D02*
X003254Y012909D01*
X003188Y013068D02*
X003170Y013068D01*
X003170Y013226D02*
X003183Y013226D01*
X003170Y013385D02*
X003226Y013385D01*
X003170Y013543D02*
X003339Y013543D01*
X004064Y013860D02*
X004370Y013860D01*
X004455Y014019D02*
X004152Y014019D01*
X004177Y014177D02*
X004669Y014177D01*
X004461Y014336D02*
X004154Y014336D01*
X004070Y014494D02*
X004373Y014494D01*
X004340Y014653D02*
X003839Y014653D01*
X004015Y014811D02*
X004350Y014811D01*
X004415Y014970D02*
X004131Y014970D01*
X004177Y015128D02*
X004564Y015128D01*
X004510Y015287D02*
X004174Y015287D01*
X004109Y015445D02*
X004393Y015445D01*
X004340Y015604D02*
X003958Y015604D01*
X003966Y015762D02*
X004340Y015762D01*
X004395Y015921D02*
X004111Y015921D01*
X004177Y016079D02*
X004515Y016079D01*
X004177Y016238D02*
X006030Y016238D01*
X006030Y016396D02*
X004129Y016396D01*
X004009Y016555D02*
X006030Y016555D01*
X006030Y016713D02*
X003853Y016713D01*
X004075Y016872D02*
X006030Y016872D01*
X006030Y017030D02*
X004156Y017030D01*
X004177Y017189D02*
X006030Y017189D01*
X006030Y017347D02*
X004149Y017347D01*
X004058Y017506D02*
X006030Y017506D01*
X006030Y016079D02*
X005845Y016079D01*
X005965Y015921D02*
X006030Y015921D01*
X006020Y015762D02*
X006030Y015762D01*
X006020Y015604D02*
X006030Y015604D01*
X006030Y015445D02*
X005967Y015445D01*
X006030Y015287D02*
X005850Y015287D01*
X005796Y015128D02*
X006030Y015128D01*
X006030Y014970D02*
X005945Y014970D01*
X006010Y014811D02*
X006030Y014811D01*
X006020Y014653D02*
X006030Y014653D01*
X006030Y014494D02*
X005987Y014494D01*
X006030Y014336D02*
X005899Y014336D01*
X006030Y014177D02*
X005691Y014177D01*
X005905Y014019D02*
X006030Y014019D01*
X006030Y013860D02*
X005990Y013860D01*
X006020Y013702D02*
X006030Y013702D01*
X006030Y013543D02*
X006008Y013543D01*
X006030Y013385D02*
X005942Y013385D01*
X006030Y013226D02*
X005790Y013226D01*
X005856Y013068D02*
X006030Y013068D01*
X006030Y012909D02*
X005970Y012909D01*
X006020Y012751D02*
X006030Y012751D01*
X006020Y012592D02*
X006030Y012592D01*
X006030Y012434D02*
X005962Y012434D01*
X006030Y012275D02*
X005839Y012275D01*
X005807Y012117D02*
X006030Y012117D01*
X006030Y011958D02*
X005949Y011958D01*
X006015Y011800D02*
X006030Y011800D01*
X006020Y011641D02*
X006030Y011641D01*
X006030Y011483D02*
X005983Y011483D01*
X006030Y011324D02*
X005888Y011324D01*
X006030Y011166D02*
X005719Y011166D01*
X005917Y011007D02*
X006030Y011007D01*
X006030Y010849D02*
X005995Y010849D01*
X006020Y010690D02*
X006030Y010690D01*
X006020Y009739D02*
X006030Y009739D01*
X006020Y009581D02*
X006030Y009581D01*
X006030Y009422D02*
X005958Y009422D01*
X006030Y009264D02*
X005827Y009264D01*
X005819Y009105D02*
X006030Y009105D01*
X006030Y008947D02*
X005954Y008947D01*
X006020Y008788D02*
X006030Y008788D01*
X006020Y008630D02*
X006030Y008630D01*
X006030Y008471D02*
X005978Y008471D01*
X006030Y008313D02*
X005876Y008313D01*
X006030Y008154D02*
X005621Y008154D01*
X005930Y007996D02*
X004077Y007996D01*
X004085Y008012D02*
X004107Y008078D01*
X004117Y008146D01*
X004117Y008180D01*
X004117Y008214D01*
X004107Y008282D01*
X004085Y008348D01*
X004054Y008409D01*
X004014Y008465D01*
X003965Y008514D01*
X003909Y008554D01*
X003848Y008585D01*
X003782Y008607D01*
X003714Y008617D01*
X003680Y008617D01*
X003680Y008180D01*
X003680Y008180D01*
X004117Y008180D01*
X003680Y008180D01*
X003680Y008180D01*
X003680Y008180D01*
X003243Y008180D01*
X003243Y008146D01*
X003253Y008078D01*
X003275Y008012D01*
X003306Y007951D01*
X003346Y007895D01*
X003395Y007846D01*
X003451Y007806D01*
X003512Y007775D01*
X003578Y007753D01*
X003646Y007743D01*
X003680Y007743D01*
X003714Y007743D01*
X003782Y007753D01*
X003848Y007775D01*
X003909Y007806D01*
X003965Y007846D01*
X004014Y007895D01*
X004054Y007951D01*
X004085Y008012D01*
X004117Y008154D02*
X004739Y008154D01*
X004484Y008313D02*
X004097Y008313D01*
X004008Y008471D02*
X004382Y008471D01*
X004340Y008630D02*
X003170Y008630D01*
X003170Y008788D02*
X003368Y008788D01*
X003398Y008758D02*
X003581Y008683D01*
X003779Y008683D01*
X003962Y008758D01*
X004102Y008898D01*
X004177Y009081D01*
X004177Y009279D01*
X004102Y009462D01*
X003962Y009602D01*
X003779Y009677D01*
X003581Y009677D01*
X003398Y009602D01*
X003258Y009462D01*
X003183Y009279D01*
X003183Y009081D01*
X003258Y008898D01*
X003398Y008758D01*
X003512Y008585D02*
X003578Y008607D01*
X003646Y008617D01*
X003680Y008617D01*
X003680Y008180D01*
X003680Y007743D01*
X003680Y008180D01*
X003680Y008180D01*
X003243Y008180D01*
X003243Y008214D01*
X003253Y008282D01*
X003275Y008348D01*
X003306Y008409D01*
X003346Y008465D01*
X003395Y008514D01*
X003451Y008554D01*
X003512Y008585D01*
X003352Y008471D02*
X003170Y008471D01*
X003170Y008313D02*
X003263Y008313D01*
X003243Y008154D02*
X003170Y008154D01*
X003170Y007996D02*
X003283Y007996D01*
X003170Y007837D02*
X003408Y007837D01*
X003581Y007677D02*
X003398Y007602D01*
X003258Y007462D01*
X003183Y007279D01*
X003183Y007081D01*
X003258Y006898D01*
X003398Y006758D01*
X003581Y006683D01*
X003779Y006683D01*
X003962Y006758D01*
X004102Y006898D01*
X004177Y007081D01*
X004177Y007279D01*
X004102Y007462D01*
X003962Y007602D01*
X003779Y007677D01*
X003581Y007677D01*
X003680Y007837D02*
X003680Y007837D01*
X003680Y007996D02*
X003680Y007996D01*
X003680Y008154D02*
X003680Y008154D01*
X003680Y008313D02*
X003680Y008313D01*
X003680Y008471D02*
X003680Y008471D01*
X003992Y008788D02*
X004340Y008788D01*
X004406Y008947D02*
X004122Y008947D01*
X004177Y009105D02*
X004541Y009105D01*
X004533Y009264D02*
X004177Y009264D01*
X004118Y009422D02*
X004402Y009422D01*
X004340Y009581D02*
X003983Y009581D01*
X003915Y009739D02*
X004340Y009739D01*
X003445Y009739D02*
X003170Y009739D01*
X003170Y009581D02*
X003377Y009581D01*
X003242Y009422D02*
X003170Y009422D01*
X003170Y009264D02*
X003183Y009264D01*
X003170Y009105D02*
X003183Y009105D01*
X003170Y008947D02*
X003238Y008947D01*
X003259Y009898D02*
X003170Y009898D01*
X003170Y010056D02*
X003193Y010056D01*
X003183Y010215D02*
X003170Y010215D01*
X003170Y010373D02*
X003221Y010373D01*
X003170Y010532D02*
X003328Y010532D01*
X003952Y007837D02*
X005771Y007837D01*
X005613Y007679D02*
X003170Y007679D01*
X003170Y007520D02*
X003316Y007520D01*
X003217Y007362D02*
X003170Y007362D01*
X003170Y007203D02*
X003183Y007203D01*
X003170Y007045D02*
X003198Y007045D01*
X003170Y006886D02*
X003270Y006886D01*
X003170Y006728D02*
X003472Y006728D01*
X003170Y006569D02*
X004503Y006569D01*
X004345Y006411D02*
X003170Y006411D01*
X003170Y006252D02*
X004186Y006252D01*
X004065Y006094D02*
X003170Y006094D01*
X003170Y005935D02*
X004030Y005935D01*
X004030Y005777D02*
X003170Y005777D01*
X003170Y005618D02*
X004030Y005618D01*
X004030Y005460D02*
X003170Y005460D01*
X003170Y005301D02*
X004030Y005301D01*
X004030Y005143D02*
X003170Y005143D01*
X003170Y004984D02*
X004030Y004984D01*
X004030Y004826D02*
X003170Y004826D01*
X003170Y004667D02*
X004030Y004667D01*
X004030Y004509D02*
X003170Y004509D01*
X003170Y004350D02*
X004030Y004350D01*
X004030Y004192D02*
X003170Y004192D01*
X003170Y004033D02*
X004058Y004033D01*
X004170Y003875D02*
X003170Y003875D01*
X003170Y003716D02*
X004328Y003716D01*
X004421Y003558D02*
X004534Y003558D01*
X004643Y003399D02*
X005113Y003399D01*
X005569Y003399D02*
X005940Y003399D01*
X005782Y003558D02*
X005728Y003558D01*
X005633Y004350D02*
X005876Y004350D01*
X005016Y005301D02*
X004830Y005301D01*
X004830Y005143D02*
X004858Y005143D01*
X004662Y006728D02*
X003888Y006728D01*
X004090Y006886D02*
X004820Y006886D01*
X004979Y007045D02*
X004162Y007045D01*
X004177Y007203D02*
X005137Y007203D01*
X005296Y007362D02*
X004143Y007362D01*
X004044Y007520D02*
X005454Y007520D01*
X007500Y007520D02*
X007629Y007520D01*
X007619Y007679D02*
X007500Y007679D01*
X007500Y007837D02*
X007718Y007837D01*
X007661Y007996D02*
X007500Y007996D01*
X007500Y008154D02*
X007616Y008154D01*
X007627Y008313D02*
X007500Y008313D01*
X007500Y008471D02*
X007622Y008471D01*
X007723Y008630D02*
X007500Y008630D01*
X007500Y008788D02*
X007970Y008788D01*
X007931Y008947D02*
X007500Y008947D01*
X007500Y009105D02*
X007931Y009105D01*
X007729Y009264D02*
X007500Y009264D01*
X007500Y009422D02*
X007624Y009422D01*
X007624Y009581D02*
X007500Y009581D01*
X007500Y009739D02*
X007730Y009739D01*
X007656Y009898D02*
X007500Y009898D01*
X007500Y010056D02*
X007616Y010056D01*
X007659Y010215D02*
X007500Y010215D01*
X007500Y010373D02*
X007931Y010373D01*
X007931Y010532D02*
X007500Y010532D01*
X007500Y010690D02*
X007942Y010690D01*
X008052Y010849D02*
X007500Y010849D01*
X007500Y011007D02*
X007900Y011007D01*
X008646Y010849D02*
X009308Y010849D01*
X009563Y010690D02*
X008756Y010690D01*
X008963Y010532D02*
X009420Y010532D01*
X009287Y010373D02*
X009072Y010373D01*
X009077Y010215D02*
X009243Y010215D01*
X009260Y010056D02*
X008974Y010056D01*
X008758Y009898D02*
X009344Y009898D01*
X011000Y009739D02*
X011178Y009739D01*
X011113Y009581D02*
X011000Y009581D01*
X011000Y008893D02*
X011137Y008756D01*
X011321Y008680D01*
X012039Y008680D01*
X011321Y008680D01*
X011137Y008604D01*
X011000Y008467D01*
X011000Y008893D01*
X011000Y008788D02*
X011105Y008788D01*
X011199Y008630D02*
X011000Y008630D01*
X011000Y008471D02*
X011004Y008471D01*
X011000Y007893D02*
X011137Y007756D01*
X011321Y007680D01*
X012039Y007680D01*
X011321Y007680D01*
X011137Y007604D01*
X011000Y007467D01*
X011000Y007893D01*
X011000Y007837D02*
X011056Y007837D01*
X011000Y007679D02*
X011317Y007679D01*
X011053Y007520D02*
X011000Y007520D01*
X011000Y006886D02*
X011007Y006886D01*
X011000Y006728D02*
X011206Y006728D01*
X011214Y006569D02*
X011000Y006569D01*
X011000Y006411D02*
X011044Y006411D01*
X011054Y005935D02*
X011000Y005935D01*
X011000Y005777D02*
X011243Y005777D01*
X011171Y005618D02*
X011000Y005618D01*
X010920Y005143D02*
X010845Y005143D01*
X010960Y004984D02*
X010687Y004984D01*
X010528Y004826D02*
X011067Y004826D01*
X011289Y004667D02*
X010370Y004667D01*
X010098Y005301D02*
X008324Y005301D01*
X007713Y005301D02*
X007500Y005301D01*
X007500Y005143D02*
X007555Y005143D01*
X007500Y005460D02*
X010257Y005460D01*
X010360Y005618D02*
X007500Y005618D01*
X007500Y005777D02*
X010360Y005777D01*
X010360Y005935D02*
X007500Y005935D01*
X007500Y006094D02*
X010360Y006094D01*
X010360Y006252D02*
X007500Y006252D01*
X007500Y006411D02*
X010360Y006411D01*
X010360Y006569D02*
X007500Y006569D01*
X007500Y006728D02*
X007746Y006728D01*
X007631Y006886D02*
X007500Y006886D01*
X007500Y007045D02*
X007616Y007045D01*
X007616Y007203D02*
X007500Y007203D01*
X007500Y007362D02*
X007619Y007362D01*
X008754Y007520D02*
X009316Y007520D01*
X009258Y007462D02*
X009398Y007602D01*
X009581Y007677D01*
X009779Y007677D01*
X009962Y007602D01*
X010102Y007462D01*
X010177Y007279D01*
X010177Y007081D01*
X010102Y006898D01*
X009962Y006758D01*
X009779Y006683D01*
X009581Y006683D01*
X009398Y006758D01*
X009258Y006898D01*
X009183Y007081D01*
X009183Y007279D01*
X009258Y007462D01*
X009217Y007362D02*
X008767Y007362D01*
X008767Y007203D02*
X009183Y007203D01*
X009198Y007045D02*
X008767Y007045D01*
X008767Y006886D02*
X009270Y006886D01*
X009472Y006728D02*
X008717Y006728D01*
X009888Y006728D02*
X010360Y006728D01*
X010360Y006886D02*
X010090Y006886D01*
X010162Y007045D02*
X010360Y007045D01*
X010360Y007203D02*
X010177Y007203D01*
X010143Y007362D02*
X010360Y007362D01*
X010360Y007520D02*
X010044Y007520D01*
X011680Y006569D02*
X011680Y006569D01*
X011680Y006411D02*
X011680Y006411D01*
X011680Y006252D02*
X011680Y006252D01*
X011680Y006180D02*
X011680Y005740D01*
X011680Y006180D01*
X011680Y006180D01*
X011680Y006094D02*
X011680Y006094D01*
X011680Y005935D02*
X011680Y005935D01*
X011680Y005777D02*
X011680Y005777D01*
X012117Y005777D02*
X013860Y005777D01*
X013860Y005935D02*
X012306Y005935D01*
X012372Y006094D02*
X013860Y006094D01*
X013860Y006252D02*
X012374Y006252D01*
X012316Y006411D02*
X013860Y006411D01*
X013860Y006569D02*
X012146Y006569D01*
X012154Y006728D02*
X013860Y006728D01*
X013860Y005618D02*
X012189Y005618D01*
X012365Y005460D02*
X013860Y005460D01*
X013860Y005301D02*
X012431Y005301D01*
X012440Y005143D02*
X013860Y005143D01*
X013860Y004984D02*
X012400Y004984D01*
X012293Y004826D02*
X013860Y004826D01*
X013860Y004667D02*
X012071Y004667D01*
X012319Y004509D02*
X013806Y004509D01*
X014236Y004033D02*
X014624Y004033D01*
X014466Y004192D02*
X014394Y004192D01*
X014029Y003875D02*
X014831Y003875D01*
X018232Y002765D02*
X020182Y002765D01*
X020182Y002607D02*
X018217Y002607D01*
X018370Y002448D02*
X020182Y002448D01*
X020182Y002290D02*
X018436Y002290D01*
X018440Y002131D02*
X020182Y002131D01*
X020182Y001973D02*
X018395Y001973D01*
X020182Y001497D02*
X003170Y001497D01*
X003170Y001656D02*
X006249Y001656D01*
X006047Y001814D02*
X004230Y001814D01*
X004564Y001973D02*
X005929Y001973D01*
X005855Y002131D02*
X004722Y002131D01*
X004828Y002290D02*
X005819Y002290D01*
X007313Y001814D02*
X009110Y001814D01*
X008776Y001973D02*
X007431Y001973D01*
X007505Y002131D02*
X008618Y002131D01*
X008512Y002290D02*
X007541Y002290D01*
X003775Y001814D02*
X003170Y001814D01*
X003170Y001973D02*
X003442Y001973D01*
X003283Y002131D02*
X003170Y002131D01*
X003170Y002290D02*
X003178Y002290D01*
X003170Y003241D02*
X003211Y003241D01*
X003170Y003399D02*
X003363Y003399D01*
X003170Y003558D02*
X003584Y003558D01*
X010862Y012909D02*
X010991Y012909D01*
X010680Y013180D02*
X011180Y013680D01*
X010680Y013180D02*
X009680Y013180D01*
X003430Y018615D02*
X003170Y018615D01*
X003170Y018457D02*
X003256Y018457D01*
X003190Y018298D02*
X003170Y018298D01*
X003170Y018140D02*
X003183Y018140D01*
X003170Y017981D02*
X003224Y017981D01*
X003170Y017823D02*
X003334Y017823D01*
X003383Y018774D02*
X003170Y018774D01*
X003170Y018932D02*
X003244Y018932D01*
X003183Y019091D02*
X003170Y019091D01*
X003170Y019249D02*
X003183Y019249D01*
X003170Y019408D02*
X003236Y019408D01*
X003170Y019566D02*
X003362Y019566D01*
X003480Y019725D02*
X003170Y019725D01*
X003170Y019883D02*
X003273Y019883D01*
X003199Y020042D02*
X003170Y020042D01*
X003170Y020200D02*
X003183Y020200D01*
X003170Y020359D02*
X003215Y020359D01*
X003170Y020517D02*
X003313Y020517D01*
X018430Y013430D02*
X018680Y013680D01*
X019180Y013680D01*
D19*
X019680Y017180D03*
X015930Y019680D03*
X014930Y019430D03*
X014180Y021180D03*
X016430Y021180D03*
X008180Y020680D03*
X005180Y017680D03*
X004930Y020180D03*
X005930Y006430D03*
X008180Y006180D03*
X013180Y001930D03*
X016430Y003430D03*
D20*
X006430Y007930D02*
X004430Y005930D01*
X004430Y004180D01*
X004680Y003930D01*
X005318Y003930D01*
X005341Y003906D01*
X006430Y007930D02*
X006430Y010180D01*
X006430Y021430D01*
X006930Y021930D01*
X016930Y021930D01*
X017680Y021180D01*
X018680Y021180D01*
X019430Y021180D01*
X018680Y021180D02*
X018680Y017430D01*
X018430Y017180D01*
X017680Y017180D01*
D21*
X006430Y010180D02*
X003680Y010180D01*
D22*
X007916Y010052D02*
X007995Y010052D01*
X008231Y010052D02*
X008467Y010052D01*
X008467Y009816D02*
X008231Y009816D01*
X008231Y009501D01*
X008467Y009501D01*
X008231Y009501D02*
X007916Y009501D01*
X008231Y009265D02*
X008231Y008950D01*
X008467Y008950D01*
X008467Y009265D01*
X008467Y008713D02*
X008467Y008399D01*
X008231Y008399D01*
X008231Y008635D01*
X008231Y008399D02*
X007916Y008399D01*
X007916Y008162D02*
X007995Y008162D01*
X008231Y008162D02*
X008467Y008162D01*
X008467Y007926D02*
X008231Y007926D01*
X008231Y007611D01*
X008467Y007611D01*
X008467Y007926D01*
X008231Y007611D02*
X007916Y007611D01*
X007916Y007296D02*
X008231Y007296D01*
X008231Y006981D01*
X007916Y006981D01*
X007916Y007296D01*
X008231Y007296D02*
X008231Y007375D01*
X008467Y007375D01*
X008467Y006902D01*
X008231Y006902D01*
X008231Y006981D01*
X008231Y010288D02*
X008231Y010603D01*
X008467Y010603D01*
X008467Y010288D01*
X008782Y010288D01*
X008467Y010288D02*
X008231Y010288D01*
M02*
